<?xml version="1.0" standalone="yes"?>
<svg xmlns="http://www.w3.org/2000/svg" width="200" height="275">
<path style="fill:#fefefe; stroke:none;" d="M0 0L0 275L200 275L200 0L0 0z"/>
<path style="fill:#a9a9a9; stroke:none;" d="M111 10L111 11L114 11L111 10z"/>
<path style="fill:#6f6f6f; stroke:none;" d="M114 10L115 11L114 10z"/>
<path style="fill:#444444; stroke:none;" d="M115.667 10.3333L116.333 10.6667L115.667 10.3333z"/>
<path style="fill:#6f6f6f; stroke:none;" d="M117 10L118 11L117 10z"/>
<path style="fill:#a9a9a9; stroke:none;" d="M118 10L119 11L118 10M107 11L108 12L107 11z"/>
<path style="fill:#6f6f6f; stroke:none;" d="M108 11L109 12L108 11z"/>
<path style="fill:#a9a9a9; stroke:none;" d="M109 11L110 12L109 11M119 11L120 12L119 11z"/>
<path style="fill:#6f6f6f; stroke:none;" d="M120 11L121 12L120 11M106 12L107 13L106 12M122 12L123 13L122 12M105 13L106 14L105 13M124 13L125 14L124 13M104 14L105 15L104 14M126 14L127 15L126 14z"/>
<path style="fill:#a9a9a9; stroke:none;" d="M127 14L128 15L127 14M102 15L102 17L104 15L102 15M128 15L129 16L128 15z"/>
<path style="fill:#6f6f6f; stroke:none;" d="M128 16L129 17L128 16z"/>
<path style="fill:#a9a9a9; stroke:none;" d="M101.333 17.6667L101.667 18.3333L101.333 17.6667M114 17L114 18L118 18L114 17z"/>
<path style="fill:#6f6f6f; stroke:none;" d="M118 17L119 18L118 17z"/>
<path style="fill:#a9a9a9; stroke:none;" d="M119 17L121 19L121 17L119 17M128 17L129 18L128 17z"/>
<path style="fill:#444444; stroke:none;" d="M108.667 18.3333L109.333 18.6667L108.667 18.3333z"/>
<path style="fill:#6f6f6f; stroke:none;" d="M110.667 18.3333L111.333 18.6667L110.667 18.3333z"/>
<path style="fill:#444444; stroke:none;" d="M112 18L113 19L112 18z"/>
<path style="fill:#a9a9a9; stroke:none;" d="M113 18L114 19L113 18z"/>
<path style="fill:#6f6f6f; stroke:none;" d="M121.333 18.6667L121.667 19.3333L121.333 18.6667z"/>
<path style="fill:#a9a9a9; stroke:none;" d="M102 19L103 20L102 19z"/>
<path style="fill:#222222; stroke:none;" d="M107 19L108 20L107 19z"/>
<path style="fill:#a9a9a9; stroke:none;" d="M129 19L129 23L130 23L129 19z"/>
<path style="fill:#6f6f6f; stroke:none;" d="M102 20L103 25L104 25L102 20z"/>
<path style="fill:#a9a9a9; stroke:none;" d="M105.333 20.6667L105.667 21.3333L105.333 20.6667z"/>
<path style="fill:#444444; stroke:none;" d="M106 20L107 21L106 20z"/>
<path style="fill:#a9a9a9; stroke:none;" d="M122 20L123 21L122 20M103 21L104 22L103 21z"/>
<path style="fill:#222222; stroke:none;" d="M104 21L105 22L104 21z"/>
<path style="fill:#444444; stroke:none;" d="M122 21L123 22L122 21z"/>
<path style="fill:#6f6f6f; stroke:none;" d="M122 22L123 23L122 22z"/>
<path style="fill:#a9a9a9; stroke:none;" d="M122 23L123 24L122 23z"/>
<path style="fill:#6f6f6f; stroke:none;" d="M129 23L130 24L129 23z"/>
<path style="fill:#444444; stroke:none;" d="M123 24L124 25L123 24z"/>
<path style="fill:#222222; stroke:none;" d="M129 24L130 25L129 24z"/>
<path style="fill:#6f6f6f; stroke:none;" d="M104.333 25.6667L104.667 26.3333L104.333 25.6667z"/>
<path style="fill:#a9a9a9; stroke:none;" d="M123 25L125 27L125 25L123 25z"/>
<path style="fill:#444444; stroke:none;" d="M128 25L130 27L130 25L128 25M125 26L126 27L125 26z"/>
<path style="fill:#a9a9a9; stroke:none;" d="M127 26L128 27L127 26M104.333 27.6667L104.667 28.3333L104.333 27.6667z"/>
<path style="fill:#6f6f6f; stroke:none;" d="M126.667 27.3333L127.333 27.6667L126.667 27.3333z"/>
<path style="fill:#a9a9a9; stroke:none;" d="M130 28L131 29L130 28z"/>
<path style="fill:#6f6f6f; stroke:none;" d="M104.333 29.6667L104.667 30.3333L104.333 29.6667M130.333 29.6667L130.667 30.3333L130.333 29.6667z"/>
<path style="fill:#a9a9a9; stroke:none;" d="M90 31L90 32L92 33L93 33L92 30L90 31M88 31L89 32L88 31z"/>
<path style="fill:#444444; stroke:none;" d="M89 31L90 32L89 31z"/>
<path style="fill:#fefefe; stroke:none;" d="M91 31C75.3576 38.4473 80.4268 45.8791 77.6211 60C75.4529 70.913 72.7449 80.5834 74 92L83 93L85 88C88.684 90.8482 100.286 91.9169 101 86L110 85L112 78L107 82C113.355 72.3525 120.114 62.288 128.715 54.5147C133.15 50.5059 139.042 47.5029 136 41L137 40L147 49C146.979 22.3547 119.753 44.5757 110 51L113 47C106.09 39.8547 103.49 34.1941 93 32L92 40L91 40L91 31z"/>
<path style="fill:#6f6f6f; stroke:none;" d="M93 31L94 32L93 31z"/>
<path style="fill:#444444; stroke:none;" d="M94 31L95 32L94 31M104 31L105 32L104 31z"/>
<path style="fill:#a9a9a9; stroke:none;" d="M130 31L131 32L130 31z"/>
<path style="fill:#6f6f6f; stroke:none;" d="M86.6667 32.3333L87.3333 32.6667L86.6667 32.3333z"/>
<path style="fill:#444444; stroke:none;" d="M91 32L92 33L91 32z"/>
<path style="fill:#6f6f6f; stroke:none;" d="M95 32L95 33L99 33L95 32z"/>
<path style="fill:#a9a9a9; stroke:none;" d="M99 32L99 34L101 34L99 32z"/>
<path style="fill:#6f6f6f; stroke:none;" d="M104 32L105 33L104 32z"/>
<path style="fill:#a9a9a9; stroke:none;" d="M129 32L129 35L130 35L129 32z"/>
<path style="fill:#6f6f6f; stroke:none;" d="M84 33L85 34L84 33z"/>
<path style="fill:#444444; stroke:none;" d="M85 33L86 34L85 33z"/>
<path style="fill:#6f6f6f; stroke:none;" d="M91 33L91 36L92 36L91 33z"/>
<path style="fill:#a9a9a9; stroke:none;" d="M104 33L105 34L104 33M127 33L128 34L127 33z"/>
<path style="fill:#6f6f6f; stroke:none;" d="M128 33L129 34L128 33z"/>
<path style="fill:#a9a9a9; stroke:none;" d="M82 34L81 36L82 34z"/>
<path style="fill:#444444; stroke:none;" d="M83 34L84 35L83 34z"/>
<path style="fill:#a9a9a9; stroke:none;" d="M101.667 34.3333L102.333 34.6667L101.667 34.3333z"/>
<path style="fill:#6f6f6f; stroke:none;" d="M82 35L83 36L82 35z"/>
<path style="fill:#a9a9a9; stroke:none;" d="M103 35L104 36L103 35z"/>
<path style="fill:#6f6f6f; stroke:none;" d="M104.667 35.3333L105.333 35.6667L104.667 35.3333M130 35L131 36L130 35z"/>
<path style="fill:#a9a9a9; stroke:none;" d="M132 35L134 37L132 35z"/>
<path style="fill:#6f6f6f; stroke:none;" d="M133 35L134 36L133 35z"/>
<path style="fill:#444444; stroke:none;" d="M134 35L135 36L134 35z"/>
<path style="fill:#6f6f6f; stroke:none;" d="M135.667 35.3333L136.333 35.6667L135.667 35.3333z"/>
<path style="fill:#444444; stroke:none;" d="M137.667 35.3333L138.333 35.6667L137.667 35.3333z"/>
<path style="fill:#6f6f6f; stroke:none;" d="M139 35L140 36L139 35z"/>
<path style="fill:#a9a9a9; stroke:none;" d="M140 35L139 37L140 35M80 36L79 38L81 38L80 36M91 36L91 40L92 40L91 36z"/>
<path style="fill:#444444; stroke:none;" d="M105 36L106 37L105 36z"/>
<path style="fill:#a9a9a9; stroke:none;" d="M128.667 36.3333L129.333 36.6667L128.667 36.3333M131 36L132 37L131 36z"/>
<path style="fill:#444444; stroke:none;" d="M140 36L141 37L140 36z"/>
<path style="fill:#222222; stroke:none;" d="M141.667 36.3333L142.333 36.6667L141.667 36.3333z"/>
<path style="fill:#a9a9a9; stroke:none;" d="M143.667 36.3333L144.333 36.6667L143.667 36.3333M106 37L107 38L106 37z"/>
<path style="fill:#6f6f6f; stroke:none;" d="M127 37L128 38L127 37M132 37L133 38L132 37z"/>
<path style="fill:#a9a9a9; stroke:none;" d="M133 39L137 38L133 39z"/>
<path style="fill:#6f6f6f; stroke:none;" d="M143 37L144 38L143 37z"/>
<path style="fill:#222222; stroke:none;" d="M144 37L144 38L147 39L144 37z"/>
<path style="fill:#6f6f6f; stroke:none;" d="M79 38L80 39L79 38M106 38L107 39L106 38M126 38L127 39L126 38z"/>
<path style="fill:#fefefe; stroke:none;" d="M134 38L135 39L134 38z"/>
<path style="fill:#a9a9a9; stroke:none;" d="M145 38L146 39L145 38M78 39L79 40L78 39z"/>
<path style="fill:#6f6f6f; stroke:none;" d="M107 39L108 40L107 39z"/>
<path style="fill:#a9a9a9; stroke:none;" d="M123 42L126 39L123 42z"/>
<path style="fill:#fefefe; stroke:none;" d="M135 39L136 40L135 39z"/>
<path style="fill:#6f6f6f; stroke:none;" d="M136 39L137 40L136 39z"/>
<path style="fill:#a9a9a9; stroke:none;" d="M146 39L147 40L146 39z"/>
<path style="fill:#6f6f6f; stroke:none;" d="M147 39L148 40L147 39z"/>
<path style="fill:#444444; stroke:none;" d="M78 40L79 41L78 40z"/>
<path style="fill:#a9a9a9; stroke:none;" d="M92.3333 40.6667L92.6667 41.3333L92.3333 40.6667M107 40L108 41L107 40z"/>
<path style="fill:#6f6f6f; stroke:none;" d="M135 40L136 41L135 40M137 40L138 41L137 40z"/>
<path style="fill:#222222; stroke:none;" d="M147 40L148 41L147 40z"/>
<path style="fill:#a9a9a9; stroke:none;" d="M78 41L79 42L78 41z"/>
<path style="fill:#444444; stroke:none;" d="M93 41L94 42L93 41z"/>
<path style="fill:#6f6f6f; stroke:none;" d="M108 41L109 42L108 41M122 41L123 42L122 41z"/>
<path style="fill:#a9a9a9; stroke:none;" d="M136 41L137 43L138 43L139 41L136 41z"/>
<path style="fill:#6f6f6f; stroke:none;" d="M147 41L148 42L147 41M77 42L78 43L77 42M94.3333 42.6667L94.6667 43.3333L94.3333 42.6667M109 42L110 43L109 42z"/>
<path style="fill:#444444; stroke:none;" d="M121 42L122 43L121 42z"/>
<path style="fill:#6f6f6f; stroke:none;" d="M138.333 42.6667L138.667 43.3333L138.333 42.6667z"/>
<path style="fill:#a9a9a9; stroke:none;" d="M147 42L147 44L149 42L147 42z"/>
<path style="fill:#444444; stroke:none;" d="M77 43L78 44L77 43z"/>
<path style="fill:#a9a9a9; stroke:none;" d="M110 43L113 45L110 43z"/>
<path style="fill:#222222; stroke:none;" d="M120 43L121 44L120 43z"/>
<path style="fill:#a9a9a9; stroke:none;" d="M139 43L139 46L136 47L136 48L140 46L139 43M77 44L76 46L78 46L77 44z"/>
<path style="fill:#444444; stroke:none;" d="M118.667 44.3333L119.333 44.6667L118.667 44.3333z"/>
<path style="fill:#222222; stroke:none;" d="M139 44L140 45L139 44z"/>
<path style="fill:#444444; stroke:none;" d="M140 44L142 47L140 44z"/>
<path style="fill:#6f6f6f; stroke:none;" d="M147 44L148 45L147 44z"/>
<path style="fill:#a9a9a9; stroke:none;" d="M95.3333 45.6667L95.6667 46.3333L95.3333 45.6667z"/>
<path style="fill:#444444; stroke:none;" d="M112 45L113 46L112 45z"/>
<path style="fill:#6f6f6f; stroke:none;" d="M116 45L117 46L116 45z"/>
<path style="fill:#222222; stroke:none;" d="M117 45L118 46L117 45z"/>
<path style="fill:#444444; stroke:none;" d="M138 45L139 46L138 45M147 45L148 46L147 45z"/>
<path style="fill:#6f6f6f; stroke:none;" d="M76 46L77 47L76 46M111 46L112 47L111 46z"/>
<path style="fill:#a9a9a9; stroke:none;" d="M112 46L113 47L112 46z"/>
<path style="fill:#6f6f6f; stroke:none;" d="M114 46L115 47L114 46z"/>
<path style="fill:#444444; stroke:none;" d="M115 46L116 47L115 46z"/>
<path style="fill:#a9a9a9; stroke:none;" d="M116 46L117 47L116 46M142 46L143 47L142 46z"/>
<path style="fill:#222222; stroke:none;" d="M147 46L148 47L147 46z"/>
<path style="fill:#444444; stroke:none;" d="M76 47L77 48L76 47M110 47L109 49L110 47z"/>
<path style="fill:#222222; stroke:none;" d="M113 47L114 48L113 47z"/>
<path style="fill:#444444; stroke:none;" d="M114 47L115 48L114 47z"/>
<path style="fill:#6f6f6f; stroke:none;" d="M137 47L138 48L137 47z"/>
<path style="fill:#222222; stroke:none;" d="M142 47L146 50L146 49L142 47z"/>
<path style="fill:#444444; stroke:none;" d="M143 47L144 48L143 47z"/>
<path style="fill:#6f6f6f; stroke:none;" d="M147 47L148 48L147 47M76 48L77 49L76 48z"/>
<path style="fill:#444444; stroke:none;" d="M94 48L95 49L94 48z"/>
<path style="fill:#a9a9a9; stroke:none;" d="M112 48L111 51L112 51L112 48z"/>
<path style="fill:#444444; stroke:none;" d="M113 48L114 49L113 48M136 48L137 49L136 48z"/>
<path style="fill:#a9a9a9; stroke:none;" d="M142 48L143 49L142 48M144 48L145 49L144 48M147 48L148 49L147 48M76 49L78 51L78 49L76 49M94 49L95 50L94 49M106 49L107 50L106 49z"/>
<path style="fill:#222222; stroke:none;" d="M107 49L109 51L109 49L107 49z"/>
<path style="fill:#6f6f6f; stroke:none;" d="M112 49L113 50L112 49z"/>
<path style="fill:#a9a9a9; stroke:none;" d="M134.333 49.6667L134.667 50.3333L134.333 49.6667z"/>
<path style="fill:#6f6f6f; stroke:none;" d="M135 49L136 50L135 49z"/>
<path style="fill:#a9a9a9; stroke:none;" d="M143 49L144 50L143 49z"/>
<path style="fill:#6f6f6f; stroke:none;" d="M146 49L147 50L146 49M93 50L94 55L95 55L96 55L93 50z"/>
<path style="fill:#444444; stroke:none;" d="M105 50L106 51L105 50z"/>
<path style="fill:#6f6f6f; stroke:none;" d="M106 50L107 51L106 50z"/>
<path style="fill:#fefefe; stroke:none;" d="M107 50L98 53L98 54C101.636 54.9869 107.111 54.8576 107 50z"/>
<path style="fill:#444444; stroke:none;" d="M110 50L111 51L110 50z"/>
<path style="fill:#6f6f6f; stroke:none;" d="M133 50L134 51L133 50z"/>
<path style="fill:#a9a9a9; stroke:none;" d="M144 50L145 51L144 50z"/>
<path style="fill:#6f6f6f; stroke:none;" d="M145.333 50.6667L145.667 51.3333L145.333 50.6667z"/>
<path style="fill:#444444; stroke:none;" d="M77 51L78 52L77 51z"/>
<path style="fill:#6f6f6f; stroke:none;" d="M98 51L98 52L102 52L98 51z"/>
<path style="fill:#444444; stroke:none;" d="M102.667 51.3333L103.333 51.6667L102.667 51.3333z"/>
<path style="fill:#a9a9a9; stroke:none;" d="M104 51L105 52L104 51z"/>
<path style="fill:#444444; stroke:none;" d="M108 51L109 52L108 51z"/>
<path style="fill:#a9a9a9; stroke:none;" d="M109 51L110 52L109 51z"/>
<path style="fill:#444444; stroke:none;" d="M132 51L133 52L132 51z"/>
<path style="fill:#222222; stroke:none;" d="M77 52L78 53L77 52M93 52L94 53L93 52z"/>
<path style="fill:#a9a9a9; stroke:none;" d="M98 52L99 53L98 52z"/>
<path style="fill:#444444; stroke:none;" d="M107 52L108 53L107 52z"/>
<path style="fill:#a9a9a9; stroke:none;" d="M130 52L130 54L132 52L130 52z"/>
<path style="fill:#444444; stroke:none;" d="M146 52L147 53L146 52M77 53L78 54L77 53M92 53L93 54L92 53z"/>
<path style="fill:#fefefe; stroke:none;" d="M93.6667 53.3333L94.3333 53.6667L93.6667 53.3333z"/>
<path style="fill:#444444; stroke:none;" d="M96 53L97 54L96 53z"/>
<path style="fill:#6f6f6f; stroke:none;" d="M97 53L98 54L97 53z"/>
<path style="fill:#444444; stroke:none;" d="M106 53L107 54L106 53z"/>
<path style="fill:#a9a9a9; stroke:none;" d="M147.333 53.6667L147.667 54.3333L147.333 53.6667M77 54L78 55L77 54M91 54L89 57L91 54z"/>
<path style="fill:#6f6f6f; stroke:none;" d="M92 54L93 55L92 54z"/>
<path style="fill:#a9a9a9; stroke:none;" d="M93 54L94 55L93 54M96 54L96 55L100 56L100 55L96 54z"/>
<path style="fill:#6f6f6f; stroke:none;" d="M104.667 54.3333L105.333 54.6667L104.667 54.3333M128 54L127 56L128 54z"/>
<path style="fill:#222222; stroke:none;" d="M129 54L130 55L129 54z"/>
<path style="fill:#6f6f6f; stroke:none;" d="M77 55L78 56L77 55z"/>
<path style="fill:#222222; stroke:none;" d="M91 55L92 56L91 55z"/>
<path style="fill:#6f6f6f; stroke:none;" d="M100 55L100 56L103 56L100 55z"/>
<path style="fill:#a9a9a9; stroke:none;" d="M103 55L104 56L103 55z"/>
<path style="fill:#444444; stroke:none;" d="M128 55L129 56L128 55M148 55L149 56L148 55M77 56L77 60L78 60L77 56M90 56L91 57L90 56z"/>
<path style="fill:#a9a9a9; stroke:none;" d="M126 56L127 57L126 56z"/>
<path style="fill:#222222; stroke:none;" d="M127 56L128 57L127 56z"/>
<path style="fill:#a9a9a9; stroke:none;" d="M149 56L150 57L149 56z"/>
<path style="fill:#222222; stroke:none;" d="M89 57L90 58L89 57z"/>
<path style="fill:#6f6f6f; stroke:none;" d="M125 57L126 58L125 57z"/>
<path style="fill:#222222; stroke:none;" d="M126 57L127 58L126 57z"/>
<path style="fill:#6f6f6f; stroke:none;" d="M149 57L150 58L149 57M88 58L89 59L88 58z"/>
<path style="fill:#a9a9a9; stroke:none;" d="M89 58L90 59L89 58z"/>
<path style="fill:#222222; stroke:none;" d="M124 58L123 60L124 58z"/>
<path style="fill:#444444; stroke:none;" d="M125 58L126 59L125 58M150 58L151 59L150 58M88 59L89 60L88 59z"/>
<path style="fill:#6f6f6f; stroke:none;" d="M124 59L125 60L124 59z"/>
<path style="fill:#a9a9a9; stroke:none;" d="M151 59L152 60L151 59z"/>
<path style="fill:#222222; stroke:none;" d="M77 60L78 61L77 60z"/>
<path style="fill:#6f6f6f; stroke:none;" d="M87 60L88 61L87 60z"/>
<path style="fill:#444444; stroke:none;" d="M122.333 60.6667L122.667 61.3333L122.333 60.6667z"/>
<path style="fill:#6f6f6f; stroke:none;" d="M123 60L124 61L123 60z"/>
<path style="fill:#444444; stroke:none;" d="M151 60L152 61L151 60z"/>
<path style="fill:#6f6f6f; stroke:none;" d="M77 61L78 62L77 61z"/>
<path style="fill:#222222; stroke:none;" d="M87 61L88 62L87 61z"/>
<path style="fill:#6f6f6f; stroke:none;" d="M121 61L122 62L121 61z"/>
<path style="fill:#a9a9a9; stroke:none;" d="M151 61L152 62L151 61z"/>
<path style="fill:#444444; stroke:none;" d="M76 62L77 63L76 62z"/>
<path style="fill:#6f6f6f; stroke:none;" d="M87 62L88 63L87 62z"/>
<path style="fill:#a9a9a9; stroke:none;" d="M120 62L121 63L120 62z"/>
<path style="fill:#222222; stroke:none;" d="M121 62L122 63L121 62z"/>
<path style="fill:#a9a9a9; stroke:none;" d="M152 62L153 63L152 62z"/>
<path style="fill:#6f6f6f; stroke:none;" d="M76 63L77 64L76 63M86 63L87 64L86 63z"/>
<path style="fill:#222222; stroke:none;" d="M120 63L121 64L120 63z"/>
<path style="fill:#6f6f6f; stroke:none;" d="M152 63L153 64L152 63M75 64L76 65L75 64z"/>
<path style="fill:#222222; stroke:none;" d="M86 64L87 65L86 64z"/>
<path style="fill:#6f6f6f; stroke:none;" d="M119.667 64.3333L120.333 64.6667L119.667 64.3333z"/>
<path style="fill:#222222; stroke:none;" d="M75 65L76 66L75 65z"/>
<path style="fill:#a9a9a9; stroke:none;" d="M85.3333 65.6667L85.6667 66.3333L85.3333 65.6667z"/>
<path style="fill:#6f6f6f; stroke:none;" d="M86 65L87 66L86 65z"/>
<path style="fill:#a9a9a9; stroke:none;" d="M118 65L119 66L118 65z"/>
<path style="fill:#444444; stroke:none;" d="M119 65L120 66L119 65z"/>
<path style="fill:#a9a9a9; stroke:none;" d="M153 65L154 66L153 65M75 66L76 67L75 66z"/>
<path style="fill:#222222; stroke:none;" d="M118 66L119 67L118 66z"/>
<path style="fill:#6f6f6f; stroke:none;" d="M153 66L154 67L153 66z"/>
<path style="fill:#444444; stroke:none;" d="M74.3333 67.6667L74.6667 68.3333L74.3333 67.6667z"/>
<path style="fill:#6f6f6f; stroke:none;" d="M85 67L86 68L85 67z"/>
<path style="fill:#444444; stroke:none;" d="M117 67L118 68L117 67z"/>
<path style="fill:#a9a9a9; stroke:none;" d="M118 67L119 68L118 67z"/>
<path style="fill:#222222; stroke:none;" d="M85 68L85 73L86 73L85 68z"/>
<path style="fill:#a9a9a9; stroke:none;" d="M116 68L117 69L116 68z"/>
<path style="fill:#222222; stroke:none;" d="M117 68L115 71L117 68z"/>
<path style="fill:#6f6f6f; stroke:none;" d="M154.333 68.6667L154.667 69.3333L154.333 68.6667z"/>
<path style="fill:#a9a9a9; stroke:none;" d="M74 69L75 70L74 69z"/>
<path style="fill:#6f6f6f; stroke:none;" d="M117 69L118 70L117 69z"/>
<path style="fill:#a9a9a9; stroke:none;" d="M73 70L74 71L73 70z"/>
<path style="fill:#6f6f6f; stroke:none;" d="M116 70L115 72L116 70z"/>
<path style="fill:#a9a9a9; stroke:none;" d="M154 70L155 71L154 70z"/>
<path style="fill:#6f6f6f; stroke:none;" d="M73 71L74 72L73 71z"/>
<path style="fill:#a9a9a9; stroke:none;" d="M113 72L113 73L117 73L113 72z"/>
<path style="fill:#444444; stroke:none;" d="M116 71L117 72L116 71M73 72L74 73L73 72z"/>
<path style="fill:#222222; stroke:none;" d="M114 72L113 74L114 72z"/>
<path style="fill:#a9a9a9; stroke:none;" d="M155 72L156 73L155 72z"/>
<path style="fill:#222222; stroke:none;" d="M73 73L74 74L73 73z"/>
<path style="fill:#6f6f6f; stroke:none;" d="M85 73L86 74L85 73z"/>
<path style="fill:#fefefe; stroke:none;" d="M114 73L115 74L114 73z"/>
<path style="fill:#444444; stroke:none;" d="M115 73L116 74L115 73z"/>
<path style="fill:#6f6f6f; stroke:none;" d="M155 73L156 74L155 73z"/>
<path style="fill:#444444; stroke:none;" d="M73 74L74 75L73 74z"/>
<path style="fill:#a9a9a9; stroke:none;" d="M85.6667 74.3333L86.3333 74.6667L85.6667 74.3333z"/>
<path style="fill:#6f6f6f; stroke:none;" d="M112.667 74.3333L113.333 74.6667L112.667 74.3333z"/>
<path style="fill:#a9a9a9; stroke:none;" d="M114 74L115 75L114 74M155.333 74.6667L155.667 75.3333L155.333 74.6667z"/>
<path style="fill:#6f6f6f; stroke:none;" d="M73.3333 75.6667L73.6667 76.3333L73.3333 75.6667z"/>
<path style="fill:#444444; stroke:none;" d="M86.3333 75.6667L86.6667 76.3333L86.3333 75.6667z"/>
<path style="fill:#a9a9a9; stroke:none;" d="M111 75L112 76L111 75z"/>
<path style="fill:#222222; stroke:none;" d="M112 75L111 77L112 75z"/>
<path style="fill:#fefefe; stroke:none;" d="M113 75L112 77L113 75z"/>
<path style="fill:#444444; stroke:none;" d="M114 75L115 76L114 75M113 76L114 77L113 76z"/>
<path style="fill:#a9a9a9; stroke:none;" d="M73 77L74 78L73 77M86 77L87 78L86 77z"/>
<path style="fill:#444444; stroke:none;" d="M110 77L111 78L110 77z"/>
<path style="fill:#a9a9a9; stroke:none;" d="M111 77L111 78L114 78L111 77M156.333 77.6667L156.667 78.3333L156.333 77.6667z"/>
<path style="fill:#6f6f6f; stroke:none;" d="M73 78L73 89L74 89L73 78z"/>
<path style="fill:#a9a9a9; stroke:none;" d="M87 78L88 79L87 78z"/>
<path style="fill:#6f6f6f; stroke:none;" d="M108 81L111 78L108 81z"/>
<path style="fill:#444444; stroke:none;" d="M112 78L113 79L112 78M87 79L88 80L87 79z"/>
<path style="fill:#222222; stroke:none;" d="M111 79L112 80L111 79z"/>
<path style="fill:#6f6f6f; stroke:none;" d="M156 79L157 80L156 79M87 80L88 81L87 80z"/>
<path style="fill:#a9a9a9; stroke:none;" d="M107 80L108 81L107 80M110 80L111 81L110 80M156 80L157 81L156 80M87 81L88 82L87 81z"/>
<path style="fill:#222222; stroke:none;" d="M107 81L108 82L107 81M110 81L110 84L111 84L110 81z"/>
<path style="fill:#6f6f6f; stroke:none;" d="M87 82L88 83L87 82z"/>
<path style="fill:#444444; stroke:none;" d="M106 82L104 85L106 82z"/>
<path style="fill:#a9a9a9; stroke:none;" d="M141 82L142 83L141 82M157 82L157 85L158 85L157 82z"/>
<path style="fill:#444444; stroke:none;" d="M87 83L88 84L87 83z"/>
<path style="fill:#a9a9a9; stroke:none;" d="M106 83L107 84L106 83z"/>
<path style="fill:#6f6f6f; stroke:none;" d="M140 83L141 84L140 83z"/>
<path style="fill:#a9a9a9; stroke:none;" d="M87 84L88 85L87 84z"/>
<path style="fill:#6f6f6f; stroke:none;" d="M110 84L111 85L110 84z"/>
<path style="fill:#a9a9a9; stroke:none;" d="M86 85L87 86L86 85z"/>
<path style="fill:#6f6f6f; stroke:none;" d="M103 85L104 86L103 85z"/>
<path style="fill:#a9a9a9; stroke:none;" d="M104 85L105 86L104 85M107 85L108 86L107 85z"/>
<path style="fill:#6f6f6f; stroke:none;" d="M108 85L109 86L108 85z"/>
<path style="fill:#222222; stroke:none;" d="M109 85L110 86L109 85z"/>
<path style="fill:#6f6f6f; stroke:none;" d="M139 85L140 86L139 85z"/>
<path style="fill:#444444; stroke:none;" d="M86 86L87 87L86 86z"/>
<path style="fill:#a9a9a9; stroke:none;" d="M101 86L102 89L103 89L101 86z"/>
<path style="fill:#6f6f6f; stroke:none;" d="M102 86L103 87L102 86z"/>
<path style="fill:#444444; stroke:none;" d="M105 86L106 87L105 86z"/>
<path style="fill:#222222; stroke:none;" d="M106 86L107 87L106 86z"/>
<path style="fill:#6f6f6f; stroke:none;" d="M107 86L108 87L107 86z"/>
<path style="fill:#a9a9a9; stroke:none;" d="M138.333 86.6667L138.667 87.3333L138.333 86.6667M86 87L87 88L86 87z"/>
<path style="fill:#222222; stroke:none;" d="M103 87L104 88L103 87z"/>
<path style="fill:#6f6f6f; stroke:none;" d="M104 87L105 88L104 87z"/>
<path style="fill:#a9a9a9; stroke:none;" d="M158 87L159 88L158 87z"/>
<path style="fill:#6f6f6f; stroke:none;" d="M85.3333 88.6667L85.6667 89.3333L85.3333 88.6667z"/>
<path style="fill:#222222; stroke:none;" d="M101 88L102 89L101 88z"/>
<path style="fill:#6f6f6f; stroke:none;" d="M137 88L138 89L137 88M158.333 88.6667L158.667 89.3333L158.333 88.6667z"/>
<path style="fill:#a9a9a9; stroke:none;" d="M73 89L74 90L73 89M98 89L99 90L98 89z"/>
<path style="fill:#444444; stroke:none;" d="M99 89L100 90L99 89z"/>
<path style="fill:#6f6f6f; stroke:none;" d="M100 89L101 90L100 89z"/>
<path style="fill:#a9a9a9; stroke:none;" d="M136 89L137 90L136 89M72 90L72 92L74 92L72 90z"/>
<path style="fill:#444444; stroke:none;" d="M76.6667 90.3333L77.3333 90.6667L76.6667 90.3333z"/>
<path style="fill:#a9a9a9; stroke:none;" d="M84 90L85 91L84 90z"/>
<path style="fill:#444444; stroke:none;" d="M85 90L86 91L85 90z"/>
<path style="fill:#222222; stroke:none;" d="M84 93L89 91L84 93z"/>
<path style="fill:#6f6f6f; stroke:none;" d="M89.6667 90.3333L90.3333 90.6667L89.6667 90.3333z"/>
<path style="fill:#222222; stroke:none;" d="M91 90L91 91L97 91L91 90z"/>
<path style="fill:#444444; stroke:none;" d="M97 90L98 91L97 90M136 90L137 91L136 90z"/>
<path style="fill:#a9a9a9; stroke:none;" d="M158 90L159 91L158 90M75 91L76 92L75 91z"/>
<path style="fill:#6f6f6f; stroke:none;" d="M78.6667 91.3333L79.3333 91.6667L78.6667 91.3333M86 91L87 92L86 91z"/>
<path style="fill:#a9a9a9; stroke:none;" d="M87 91L87 92L90 92L87 91z"/>
<path style="fill:#444444; stroke:none;" d="M90 91L91 92L90 91z"/>
<path style="fill:#a9a9a9; stroke:none;" d="M95 91L96 92L95 91M135 91L136 92L135 91z"/>
<path style="fill:#6f6f6f; stroke:none;" d="M73 92L74 93L73 92z"/>
<path style="fill:#444444; stroke:none;" d="M74 92L75 93L74 92z"/>
<path style="fill:#6f6f6f; stroke:none;" d="M75 92L76 93L75 92z"/>
<path style="fill:#444444; stroke:none;" d="M80 92L81 93L80 92M83.3333 92.6667L83.6667 93.3333L83.3333 92.6667z"/>
<path style="fill:#a9a9a9; stroke:none;" d="M85 92L86 93L85 92z"/>
<path style="fill:#6f6f6f; stroke:none;" d="M90.3333 92.6667L90.6667 93.3333L90.3333 92.6667M95 92L96 93L95 92z"/>
<path style="fill:#444444; stroke:none;" d="M135 92L136 93L135 92z"/>
<path style="fill:#6f6f6f; stroke:none;" d="M159.333 92.6667L159.667 93.3333L159.333 92.6667z"/>
<path style="fill:#444444; stroke:none;" d="M81 93L80 95L81 93z"/>
<path style="fill:#6f6f6f; stroke:none;" d="M82 93L83 94L82 93z"/>
<path style="fill:#a9a9a9; stroke:none;" d="M84 93L85 94L84 93M95 93L96 94L95 93M134.667 93.3333L135.333 93.6667L134.667 93.3333z"/>
<path style="fill:#222222; stroke:none;" d="M81.6667 94.3333L82.3333 94.6667L81.6667 94.3333z"/>
<path style="fill:#a9a9a9; stroke:none;" d="M83 94L84 95L83 94M90 94L91 95L90 94z"/>
<path style="fill:#444444; stroke:none;" d="M134 94L135 95L134 94z"/>
<path style="fill:#a9a9a9; stroke:none;" d="M159 94L160 95L159 94M79 95L79 97L81 95L79 95M89 95L89 100L90 100L89 95M132 98L135 95L132 98M95.3333 96.6667L95.6667 97.3333L95.3333 96.6667M160 96L161 97L160 96z"/>
<path style="fill:#6f6f6f; stroke:none;" d="M79 97L80 98L79 97z"/>
<path style="fill:#a9a9a9; stroke:none;" d="M130.333 97.6667L130.667 98.3333L130.333 97.6667z"/>
<path style="fill:#444444; stroke:none;" d="M131 97L132 98L131 97z"/>
<path style="fill:#6f6f6f; stroke:none;" d="M160 97L161 98L160 97z"/>
<path style="fill:#444444; stroke:none;" d="M79 98L80 99L79 98z"/>
<path style="fill:#6f6f6f; stroke:none;" d="M95.3333 98.6667L95.6667 99.3333L95.3333 98.6667M127 98L128 99L127 98z"/>
<path style="fill:#444444; stroke:none;" d="M128.667 98.3333L129.333 98.6667L128.667 98.3333M160 98L161 99L160 98z"/>
<path style="fill:#6f6f6f; stroke:none;" d="M79 99L79 102L80 102L79 99z"/>
<path style="fill:#a9a9a9; stroke:none;" d="M119 99L120 100L119 99z"/>
<path style="fill:#222222; stroke:none;" d="M120 99L120 100L123 100L120 99z"/>
<path style="fill:#444444; stroke:none;" d="M123.667 99.3333L124.333 99.6667L123.667 99.3333z"/>
<path style="fill:#6f6f6f; stroke:none;" d="M125 99L126 100L125 99z"/>
<path style="fill:#a9a9a9; stroke:none;" d="M126 99L127 100L126 99z"/>
<path style="fill:#6f6f6f; stroke:none;" d="M160 99L161 100L160 99z"/>
<path style="fill:#444444; stroke:none;" d="M95 100L96 101L95 100M117.667 100.333L118.333 100.667L117.667 100.333z"/>
<path style="fill:#a9a9a9; stroke:none;" d="M160 100L161 101L160 100M87 101L87 104L88 104L87 101z"/>
<path style="fill:#222222; stroke:none;" d="M88.6667 101.333L89.3333 101.667L88.6667 101.333z"/>
<path style="fill:#444444; stroke:none;" d="M90 101L91 102L90 101z"/>
<path style="fill:#6f6f6f; stroke:none;" d="M95 101L96 102L95 101z"/>
<path style="fill:#a9a9a9; stroke:none;" d="M114.333 101.667L114.667 102.333L114.333 101.667z"/>
<path style="fill:#222222; stroke:none;" d="M115 101L116 102L115 101z"/>
<path style="fill:#444444; stroke:none;" d="M116 101L117 102L116 101z"/>
<path style="fill:#a9a9a9; stroke:none;" d="M161 101L162 102L161 101M80 102L81 103L80 102M90 102L90 103L93 103L93 102L90 102z"/>
<path style="fill:#6f6f6f; stroke:none;" d="M91 102L92 103L91 102z"/>
<path style="fill:#a9a9a9; stroke:none;" d="M95 102L96 103L95 102z"/>
<path style="fill:#6f6f6f; stroke:none;" d="M111 102L112 103L111 102z"/>
<path style="fill:#222222; stroke:none;" d="M112 102L113 103L112 102z"/>
<path style="fill:#6f6f6f; stroke:none;" d="M113 102L114 103L113 102M161 102L162 103L161 102M80 103L81 104L80 103z"/>
<path style="fill:#444444; stroke:none;" d="M92 103L93 104L92 103z"/>
<path style="fill:#222222; stroke:none;" d="M93 103L93 104L98 104L93 103z"/>
<path style="fill:#444444; stroke:none;" d="M98 103L100 105L98 103z"/>
<path style="fill:#a9a9a9; stroke:none;" d="M99 103L100 104L99 103M108.333 103.667L108.667 104.333L108.333 103.667z"/>
<path style="fill:#444444; stroke:none;" d="M109 103L110 104L109 103z"/>
<path style="fill:#222222; stroke:none;" d="M110 103L111 104L110 103z"/>
<path style="fill:#a9a9a9; stroke:none;" d="M111 103L112 104L111 103M118.333 103.667L118.667 104.333L118.333 103.667z"/>
<path style="fill:#444444; stroke:none;" d="M161 103L162 104L161 103z"/>
<path style="fill:#a9a9a9; stroke:none;" d="M81 104L82 105L81 104z"/>
<path style="fill:#6f6f6f; stroke:none;" d="M87 104L88 105L87 104z"/>
<path style="fill:#a9a9a9; stroke:none;" d="M98 104L99 105L98 104z"/>
<path style="fill:#222222; stroke:none;" d="M100 104L100 105L104 105L100 104z"/>
<path style="fill:#6f6f6f; stroke:none;" d="M104 104L104 105L107 105L104 104z"/>
<path style="fill:#444444; stroke:none;" d="M107 104L108 105L107 104z"/>
<path style="fill:#a9a9a9; stroke:none;" d="M161 104L162 105L161 104z"/>
<path style="fill:#222222; stroke:none;" d="M81 105L82 106L81 105z"/>
<path style="fill:#444444; stroke:none;" d="M82 105L83 106L82 105z"/>
<path style="fill:#6f6f6f; stroke:none;" d="M83 105L84 106L83 105z"/>
<path style="fill:#222222; stroke:none;" d="M84 105L84 106L87 106L84 105z"/>
<path style="fill:#a9a9a9; stroke:none;" d="M162 105L163 106L162 105M80 106L81 107L80 106z"/>
<path style="fill:#444444; stroke:none;" d="M162 106L163 107L162 106M80 107L81 108L80 107z"/>
<path style="fill:#222222; stroke:none;" d="M162 107L163 108L162 107z"/>
<path style="fill:#6f6f6f; stroke:none;" d="M80 108L81 109L80 108z"/>
<path style="fill:#a9a9a9; stroke:none;" d="M117.333 108.667L117.667 109.333L117.333 108.667z"/>
<path style="fill:#6f6f6f; stroke:none;" d="M162 108L163 109L162 108M79 109L80 110L79 109M163.333 109.667L163.667 110.333L163.333 109.667z"/>
<path style="fill:#444444; stroke:none;" d="M79 110L80 111L79 110z"/>
<path style="fill:#6f6f6f; stroke:none;" d="M117.333 110.667L117.667 111.333L117.333 110.667M78 111L79 112L78 111M164.333 111.667L164.667 112.333L164.333 111.667z"/>
<path style="fill:#444444; stroke:none;" d="M78 112L79 113L78 112M117 112L118 113L117 112z"/>
<path style="fill:#a9a9a9; stroke:none;" d="M77 113L77 115L79 113L77 113z"/>
<path style="fill:#6f6f6f; stroke:none;" d="M117.333 113.667L117.667 114.333L117.333 113.667z"/>
<path style="fill:#a9a9a9; stroke:none;" d="M165 113L166 114L165 113z"/>
<path style="fill:#444444; stroke:none;" d="M165 114L166 115L165 114M77 115L77 118L78 118L77 115z"/>
<path style="fill:#a9a9a9; stroke:none;" d="M116 115L116 121L117 121L118 115L116 115M165 115L166 116L165 115M166 116L167 117L166 116z"/>
<path style="fill:#444444; stroke:none;" d="M166.333 117.667L166.667 118.333L166.333 117.667z"/>
<path style="fill:#a9a9a9; stroke:none;" d="M77 118L78 119L77 118z"/>
<path style="fill:#6f6f6f; stroke:none;" d="M116 118L117 119L116 118M76 119L77 120L76 119z"/>
<path style="fill:#222222; stroke:none;" d="M116 119L117 120L116 119z"/>
<path style="fill:#a9a9a9; stroke:none;" d="M166.667 119.333L167.333 119.667L166.667 119.333z"/>
<path style="fill:#222222; stroke:none;" d="M76 120L77 121L76 120z"/>
<path style="fill:#6f6f6f; stroke:none;" d="M117 120L117 124L118 124L117 120z"/>
<path style="fill:#222222; stroke:none;" d="M167 120L168 121L167 120z"/>
<path style="fill:#a9a9a9; stroke:none;" d="M75.6667 121.333L76.3333 121.667L75.6667 121.333z"/>
<path style="fill:#6f6f6f; stroke:none;" d="M167 121L168 122L167 121z"/>
<path style="fill:#a9a9a9; stroke:none;" d="M168 121L169 122L168 121z"/>
<path style="fill:#444444; stroke:none;" d="M75 122L76 123L75 122M168 122L169 123L168 122z"/>
<path style="fill:#222222; stroke:none;" d="M75 123L75 126L76 126L75 123z"/>
<path style="fill:#a9a9a9; stroke:none;" d="M115 123L116 124L115 123z"/>
<path style="fill:#6f6f6f; stroke:none;" d="M168 123L169 124L168 123z"/>
<path style="fill:#a9a9a9; stroke:none;" d="M169 123L170 124L169 123M76.6667 124.333L77.3333 124.667L76.6667 124.333z"/>
<path style="fill:#6f6f6f; stroke:none;" d="M115 124L116 125L115 124z"/>
<path style="fill:#444444; stroke:none;" d="M117 124L118 125L117 124z"/>
<path style="fill:#222222; stroke:none;" d="M169 124L170 125L169 124z"/>
<path style="fill:#fefefe; stroke:none;" d="M76 125L76 142C83.2648 141.251 88.3883 136.741 91 130L76 125z"/>
<path style="fill:#6f6f6f; stroke:none;" d="M78.6667 125.333L79.3333 125.667L78.6667 125.333z"/>
<path style="fill:#a9a9a9; stroke:none;" d="M80 125L81 126L80 125z"/>
<path style="fill:#444444; stroke:none;" d="M115 125L116 126L115 125z"/>
<path style="fill:#222222; stroke:none;" d="M117 125L118 126L117 125z"/>
<path style="fill:#a9a9a9; stroke:none;" d="M169 125L170 126L169 125z"/>
<path style="fill:#444444; stroke:none;" d="M75.3333 126.667L75.6667 127.333L75.3333 126.667z"/>
<path style="fill:#6f6f6f; stroke:none;" d="M81 126L82 127L81 126z"/>
<path style="fill:#444444; stroke:none;" d="M82 126L83 127L82 126z"/>
<path style="fill:#a9a9a9; stroke:none;" d="M83 126L84 127L83 126z"/>
<path style="fill:#6f6f6f; stroke:none;" d="M115 126L116 127L115 126M117.333 126.667L117.667 127.333L117.333 126.667M170 126L171 127L170 126M83 127L84 128L83 127z"/>
<path style="fill:#222222; stroke:none;" d="M84 127L85 128L84 127z"/>
<path style="fill:#6f6f6f; stroke:none;" d="M85 127L86 128L85 127z"/>
<path style="fill:#a9a9a9; stroke:none;" d="M86 127L85 129L86 127M115 127L116 128L115 127z"/>
<path style="fill:#222222; stroke:none;" d="M170 127L171 128L170 127M75 128L76 129L75 128z"/>
<path style="fill:#444444; stroke:none;" d="M86 128L87 129L86 128z"/>
<path style="fill:#222222; stroke:none;" d="M87.6667 128.333L88.3333 128.667L87.6667 128.333z"/>
<path style="fill:#6f6f6f; stroke:none;" d="M89 128L90 129L89 128z"/>
<path style="fill:#a9a9a9; stroke:none;" d="M114 128L115 129L114 128M116.667 128.333L117.333 128.667L116.667 128.333z"/>
<path style="fill:#444444; stroke:none;" d="M170 128L171 129L170 128z"/>
<path style="fill:#a9a9a9; stroke:none;" d="M171 128L172 129L171 128z"/>
<path style="fill:#444444; stroke:none;" d="M75 129L76 130L75 129z"/>
<path style="fill:#a9a9a9; stroke:none;" d="M89 129L90 130L89 129z"/>
<path style="fill:#222222; stroke:none;" d="M90 129L91 130L90 129z"/>
<path style="fill:#6f6f6f; stroke:none;" d="M91 129L92 130L91 129M114.333 129.667L114.667 130.333L114.333 129.667M116 129L117 130L116 129M170.667 129.333L171.333 129.667L170.667 129.333M75 130L75 133L76 133L75 130z"/>
<path style="fill:#a9a9a9; stroke:none;" d="M91.3333 130.667L91.6667 131.333L91.3333 130.667z"/>
<path style="fill:#444444; stroke:none;" d="M92.6667 130.333L93.3333 130.667L92.6667 130.333z"/>
<path style="fill:#222222; stroke:none;" d="M116.333 130.667L116.667 131.333L116.333 130.667z"/>
<path style="fill:#444444; stroke:none;" d="M171 130L172 131L171 130z"/>
<path style="fill:#6f6f6f; stroke:none;" d="M94 131L95 132L94 131z"/>
<path style="fill:#222222; stroke:none;" d="M95 131L96 132L95 131z"/>
<path style="fill:#a9a9a9; stroke:none;" d="M96 131L97 132L96 131M114 131L115 132L114 131M118.667 131.333L119.333 131.667L118.667 131.333M123 131L124 132L123 131z"/>
<path style="fill:#444444; stroke:none;" d="M124 131L125 132L124 131z"/>
<path style="fill:#a9a9a9; stroke:none;" d="M125.333 131.667L125.667 132.333L125.333 131.667z"/>
<path style="fill:#222222; stroke:none;" d="M171.333 131.667L171.667 132.333L171.333 131.667z"/>
<path style="fill:#6f6f6f; stroke:none;" d="M90 132L91 133L90 132M96 132L97 133L96 132z"/>
<path style="fill:#222222; stroke:none;" d="M97 132L98 133L97 132z"/>
<path style="fill:#a9a9a9; stroke:none;" d="M98 132L99 133L98 132M113 132L114 133L113 132z"/>
<path style="fill:#444444; stroke:none;" d="M116 132L117 133L116 132z"/>
<path style="fill:#a9a9a9; stroke:none;" d="M117 132L116 138L117 138L117 132z"/>
<path style="fill:#444444; stroke:none;" d="M126 132L127 133L126 132z"/>
<path style="fill:#a9a9a9; stroke:none;" d="M75 133L76 134L75 133M89 133L90 134L89 133z"/>
<path style="fill:#6f6f6f; stroke:none;" d="M98 133L99 134L98 133z"/>
<path style="fill:#222222; stroke:none;" d="M99 133L100 134L99 133z"/>
<path style="fill:#a9a9a9; stroke:none;" d="M100 133L101 134L100 133z"/>
<path style="fill:#6f6f6f; stroke:none;" d="M113 133L114 134L113 133M116 133L117 134L116 133M127 133L128 134L127 133z"/>
<path style="fill:#a9a9a9; stroke:none;" d="M128.333 133.667L128.667 134.333L128.333 133.667z"/>
<path style="fill:#444444; stroke:none;" d="M171 133L172 134L171 133z"/>
<path style="fill:#a9a9a9; stroke:none;" d="M74.3333 134.667L74.6667 135.333L74.3333 134.667z"/>
<path style="fill:#6f6f6f; stroke:none;" d="M89 134L90 135L89 134M100 134L101 135L100 134z"/>
<path style="fill:#222222; stroke:none;" d="M101 134L102 135L101 134z"/>
<path style="fill:#6f6f6f; stroke:none;" d="M102 134L103 135L102 134z"/>
<path style="fill:#a9a9a9; stroke:none;" d="M113 134L114 135L113 134z"/>
<path style="fill:#222222; stroke:none;" d="M129 134L130 135L129 134z"/>
<path style="fill:#6f6f6f; stroke:none;" d="M130 134L131 135L130 134M170 134L169 136L170 134z"/>
<path style="fill:#a9a9a9; stroke:none;" d="M171 134L172 135L171 134z"/>
<path style="fill:#444444; stroke:none;" d="M88 135L89 136L88 135z"/>
<path style="fill:#a9a9a9; stroke:none;" d="M102 135L103 136L102 135z"/>
<path style="fill:#222222; stroke:none;" d="M103 135L104 136L103 135z"/>
<path style="fill:#6f6f6f; stroke:none;" d="M104 135L105 136L104 135M131 135L132 136L131 135z"/>
<path style="fill:#222222; stroke:none;" d="M132 135L133 136L132 135z"/>
<path style="fill:#a9a9a9; stroke:none;" d="M133.333 135.667L133.667 136.333L133.333 135.667z"/>
<path style="fill:#222222; stroke:none;" d="M170 135L170 138L171 138L170 135z"/>
<path style="fill:#a9a9a9; stroke:none;" d="M75 136L76 137L75 136M87 136L85 140L86 140L87 136M104 136L105 137L104 136z"/>
<path style="fill:#222222; stroke:none;" d="M105.667 136.333L106.333 136.667L105.667 136.333z"/>
<path style="fill:#444444; stroke:none;" d="M107 136L109 138L107 136z"/>
<path style="fill:#a9a9a9; stroke:none;" d="M108 136L109 137L108 136M112 136L113 137L112 136z"/>
<path style="fill:#222222; stroke:none;" d="M134 136L135 137L134 136z"/>
<path style="fill:#444444; stroke:none;" d="M135 136L136 137L135 136z"/>
<path style="fill:#a9a9a9; stroke:none;" d="M136 136L137 137L136 136M166 136L167 137L166 136z"/>
<path style="fill:#6f6f6f; stroke:none;" d="M167.333 136.667L167.667 137.333L167.333 136.667z"/>
<path style="fill:#222222; stroke:none;" d="M168 136L169 137L168 136z"/>
<path style="fill:#444444; stroke:none;" d="M169 136L170 137L169 136z"/>
<path style="fill:#6f6f6f; stroke:none;" d="M75.3333 137.667L75.6667 138.333L75.3333 137.667M87 137L88 138L87 137z"/>
<path style="fill:#a9a9a9; stroke:none;" d="M107 137L108 138L107 137z"/>
<path style="fill:#222222; stroke:none;" d="M109 137L111 139L109 137z"/>
<path style="fill:#a9a9a9; stroke:none;" d="M110 137L111 138L110 137z"/>
<path style="fill:#6f6f6f; stroke:none;" d="M112 137L113 138L112 137M115 137L116 138L115 137M136 137L137 138L136 137z"/>
<path style="fill:#222222; stroke:none;" d="M137 137L138 138L137 137z"/>
<path style="fill:#444444; stroke:none;" d="M138 137L139 138L138 137z"/>
<path style="fill:#a9a9a9; stroke:none;" d="M139.333 137.667L139.667 138.333L139.333 137.667M159.667 137.333L160.333 137.667L159.667 137.333z"/>
<path style="fill:#6f6f6f; stroke:none;" d="M160 138L160 139L164 138L160 138z"/>
<path style="fill:#222222; stroke:none;" d="M164 137L164 138L167 138L164 137z"/>
<path style="fill:#a9a9a9; stroke:none;" d="M168 137L170 139L168 137z"/>
<path style="fill:#fefefe; stroke:none;" d="M169 137L170 138L169 137z"/>
<path style="fill:#6f6f6f; stroke:none;" d="M86 138L87 139L86 138z"/>
<path style="fill:#a9a9a9; stroke:none;" d="M109 138L110 139L109 138z"/>
<path style="fill:#444444; stroke:none;" d="M111 138L112 139L111 138z"/>
<path style="fill:#a9a9a9; stroke:none;" d="M112 138L111 140L113 140L112 138z"/>
<path style="fill:#444444; stroke:none;" d="M115 138L116 139L115 138z"/>
<path style="fill:#222222; stroke:none;" d="M140 138L140 139L143 139L140 138z"/>
<path style="fill:#444444; stroke:none;" d="M143 138L144 139L143 138z"/>
<path style="fill:#6f6f6f; stroke:none;" d="M144 138L147 140L147 139L144 138z"/>
<path style="fill:#a9a9a9; stroke:none;" d="M145 138L146 139L145 138M149 138L149 139L154 140L154 139L149 138z"/>
<path style="fill:#6f6f6f; stroke:none;" d="M150 138L151 139L150 138z"/>
<path style="fill:#444444; stroke:none;" d="M151 138L151 139L156 139L151 138z"/>
<path style="fill:#222222; stroke:none;" d="M156 138L156 139L160 139L156 138z"/>
<path style="fill:#a9a9a9; stroke:none;" d="M162 138L162 139L165 139L162 138z"/>
<path style="fill:#6f6f6f; stroke:none;" d="M170 138L171 139L170 138z"/>
<path style="fill:#a9a9a9; stroke:none;" d="M75.3333 139.667L75.6667 140.333L75.3333 139.667z"/>
<path style="fill:#6f6f6f; stroke:none;" d="M84 139L85 140L84 139z"/>
<path style="fill:#222222; stroke:none;" d="M115 139L116 140L115 139z"/>
<path style="fill:#a9a9a9; stroke:none;" d="M144 139L145 140L144 139z"/>
<path style="fill:#444444; stroke:none;" d="M147.667 139.333L148.333 139.667L147.667 139.333z"/>
<path style="fill:#6f6f6f; stroke:none;" d="M149 139L150 140L149 139z"/>
<path style="fill:#222222; stroke:none;" d="M169 139L170 140L169 139z"/>
<path style="fill:#a9a9a9; stroke:none;" d="M82 140L83 141L82 140z"/>
<path style="fill:#222222; stroke:none;" d="M83 140L84 141L83 140z"/>
<path style="fill:#444444; stroke:none;" d="M115 140L116 141L115 140z"/>
<path style="fill:#a9a9a9; stroke:none;" d="M168 140L169 141L168 140z"/>
<path style="fill:#6f6f6f; stroke:none;" d="M169 140L170 141L169 140M75 141L76 142L75 141z"/>
<path style="fill:#a9a9a9; stroke:none;" d="M80 141L81 142L80 141z"/>
<path style="fill:#444444; stroke:none;" d="M81 141L82 142L81 141z"/>
<path style="fill:#6f6f6f; stroke:none;" d="M82 141L83 142L82 141M112 141L112 146L113 146L112 141z"/>
<path style="fill:#a9a9a9; stroke:none;" d="M114.667 141.333L115.333 141.667L114.667 141.333z"/>
<path style="fill:#444444; stroke:none;" d="M168 141L169 142L168 141z"/>
<path style="fill:#a9a9a9; stroke:none;" d="M76 142L77 143L76 142z"/>
<path style="fill:#6f6f6f; stroke:none;" d="M77 142L78 143L77 142z"/>
<path style="fill:#444444; stroke:none;" d="M78 142L79 143L78 142z"/>
<path style="fill:#222222; stroke:none;" d="M79 142L80 143L79 142z"/>
<path style="fill:#6f6f6f; stroke:none;" d="M80 142L81 143L80 142M114 142L115 143L114 142z"/>
<path style="fill:#222222; stroke:none;" d="M168 142L169 143L168 142z"/>
<path style="fill:#a9a9a9; stroke:none;" d="M78 143L79 144L78 143z"/>
<path style="fill:#444444; stroke:none;" d="M114 143L115 144L114 143M125 143L128 146L125 143z"/>
<path style="fill:#a9a9a9; stroke:none;" d="M167.667 143.333L168.333 143.667L167.667 143.333z"/>
<path style="fill:#6f6f6f; stroke:none;" d="M78 144L78 147L79 147L78 144z"/>
<path style="fill:#222222; stroke:none;" d="M114 144L115 145L114 144z"/>
<path style="fill:#6f6f6f; stroke:none;" d="M167 144L168 145L167 144z"/>
<path style="fill:#444444; stroke:none;" d="M114 145L115 146L114 145z"/>
<path style="fill:#222222; stroke:none;" d="M167 145L168 146L167 145M112.333 146.667L112.667 147.333L112.333 146.667z"/>
<path style="fill:#6f6f6f; stroke:none;" d="M114.333 146.667L114.667 147.333L114.333 146.667z"/>
<path style="fill:#a9a9a9; stroke:none;" d="M127.667 146.333L128.333 146.667L127.667 146.333z"/>
<path style="fill:#444444; stroke:none;" d="M167 146L168 147L167 146z"/>
<path style="fill:#a9a9a9; stroke:none;" d="M78 147L79 148L78 147z"/>
<path style="fill:#444444; stroke:none;" d="M128 147L129 148L128 147z"/>
<path style="fill:#a9a9a9; stroke:none;" d="M167 147L168 148L167 147M79.3333 148.667L79.6667 149.333L79.3333 148.667z"/>
<path style="fill:#6f6f6f; stroke:none;" d="M112 148L113 149L112 148z"/>
<path style="fill:#a9a9a9; stroke:none;" d="M113 148L112 153L113 153L115 148L113 148M128.667 148.333L129.333 148.667L128.667 148.333z"/>
<path style="fill:#6f6f6f; stroke:none;" d="M166 148L167 149L166 148z"/>
<path style="fill:#222222; stroke:none;" d="M129 149L130 150L129 149z"/>
<path style="fill:#444444; stroke:none;" d="M166 149L167 150L166 149z"/>
<path style="fill:#6f6f6f; stroke:none;" d="M79.3333 150.667L79.6667 151.333L79.3333 150.667M114 150L115 151L114 150M129 150L130 151L129 150M166 150L167 151L166 150z"/>
<path style="fill:#222222; stroke:none;" d="M114 151L114 154L115 154L114 151z"/>
<path style="fill:#a9a9a9; stroke:none;" d="M116 151L117 152L116 151M130 151L131 152L130 151M166.333 151.667L166.667 152.333L166.333 151.667M79.3333 152.667L79.6667 153.333L79.3333 152.667M115 152L116 153L115 152z"/>
<path style="fill:#222222; stroke:none;" d="M130 152L131 153L130 152z"/>
<path style="fill:#a9a9a9; stroke:none;" d="M111.333 153.667L111.667 154.333L111.333 153.667z"/>
<path style="fill:#6f6f6f; stroke:none;" d="M115 153L114 156L115 153M130 153L131 154L130 153z"/>
<path style="fill:#a9a9a9; stroke:none;" d="M80 154L81 155L80 154z"/>
<path style="fill:#6f6f6f; stroke:none;" d="M131 154L132 155L131 154z"/>
<path style="fill:#a9a9a9; stroke:none;" d="M165 154L166 155L165 154z"/>
<path style="fill:#6f6f6f; stroke:none;" d="M80.3333 155.667L80.6667 156.333L80.3333 155.667M111 155L112 156L111 155z"/>
<path style="fill:#444444; stroke:none;" d="M115 155L115 159L116 159L115 155z"/>
<path style="fill:#222222; stroke:none;" d="M131 155L132 156L131 155z"/>
<path style="fill:#6f6f6f; stroke:none;" d="M165 155L166 156L165 155z"/>
<path style="fill:#444444; stroke:none;" d="M111 156L112 157L111 156z"/>
<path style="fill:#a9a9a9; stroke:none;" d="M114 156L115 157L114 156z"/>
<path style="fill:#444444; stroke:none;" d="M132 156L133 157L132 156M165 156L165 160L166 160L165 156M80 157L80 164L81 164L80 157z"/>
<path style="fill:#6f6f6f; stroke:none;" d="M111.333 157.667L111.667 158.333L111.333 157.667z"/>
<path style="fill:#a9a9a9; stroke:none;" d="M132 157L133 158L132 157z"/>
<path style="fill:#6f6f6f; stroke:none;" d="M133.333 157.667L133.667 158.333L133.333 157.667z"/>
<path style="fill:#a9a9a9; stroke:none;" d="M111 159L112 160L111 159z"/>
<path style="fill:#6f6f6f; stroke:none;" d="M115.333 159.667L115.667 160.333L115.333 159.667z"/>
<path style="fill:#444444; stroke:none;" d="M134.333 159.667L134.667 160.333L134.333 159.667z"/>
<path style="fill:#a9a9a9; stroke:none;" d="M37 160L38 163L39 163L40 161L37 160z"/>
<path style="fill:#6f6f6f; stroke:none;" d="M40.6667 160.333L41.3333 160.667L40.6667 160.333z"/>
<path style="fill:#a9a9a9; stroke:none;" d="M42 160L40 163L42 160M135 160L134 162L135 160z"/>
<path style="fill:#6f6f6f; stroke:none;" d="M165.333 160.667L165.667 161.333L165.333 160.667z"/>
<path style="fill:#a9a9a9; stroke:none;" d="M33 161L34 162L33 161z"/>
<path style="fill:#222222; stroke:none;" d="M34.6667 161.333L35.3333 161.667L34.6667 161.333z"/>
<path style="fill:#6f6f6f; stroke:none;" d="M36 161L37 162L36 161z"/>
<path style="fill:#fefefe; stroke:none;" d="M38 161L38 162L41 162L38 161z"/>
<path style="fill:#6f6f6f; stroke:none;" d="M110.333 161.667L110.667 162.333L110.333 161.667z"/>
<path style="fill:#a9a9a9; stroke:none;" d="M115 161L115 165L116 165L115 161z"/>
<path style="fill:#222222; stroke:none;" d="M135.333 161.667L135.667 162.333L135.333 161.667z"/>
<path style="fill:#a9a9a9; stroke:none;" d="M31.3333 162.667L31.6667 163.333L31.3333 162.667z"/>
<path style="fill:#444444; stroke:none;" d="M32.6667 162.333L33.3333 162.667L32.6667 162.333M39 162L40 163L39 162z"/>
<path style="fill:#a9a9a9; stroke:none;" d="M136 162L137 163L136 162M165 162L165 167L166 167L165 162z"/>
<path style="fill:#444444; stroke:none;" d="M29 163L30 164L29 163z"/>
<path style="fill:#222222; stroke:none;" d="M30 163L31 164L30 163z"/>
<path style="fill:#6f6f6f; stroke:none;" d="M36.6667 163.333L37.3333 163.667L36.6667 163.333M43.3333 163.667L43.6667 164.333L43.3333 163.667z"/>
<path style="fill:#a9a9a9; stroke:none;" d="M110 163L111 164L110 163z"/>
<path style="fill:#444444; stroke:none;" d="M136.333 163.667L136.667 164.333L136.333 163.667z"/>
<path style="fill:#a9a9a9; stroke:none;" d="M26 164C27.8937 165.733 28.418 166.092 30 164L29 164L26 164z"/>
<path style="fill:#444444; stroke:none;" d="M27 164L28 165L27 164z"/>
<path style="fill:#222222; stroke:none;" d="M28 164L29 165L28 164z"/>
<path style="fill:#a9a9a9; stroke:none;" d="M33 164L34 165L33 164z"/>
<path style="fill:#444444; stroke:none;" d="M34 164L35 165L34 164z"/>
<path style="fill:#a9a9a9; stroke:none;" d="M35 164L36 165L35 164z"/>
<path style="fill:#6f6f6f; stroke:none;" d="M80 164L80 167L81 167L80 164z"/>
<path style="fill:#a9a9a9; stroke:none;" d="M22 165L23 169L24 169L25 167L22 165z"/>
<path style="fill:#6f6f6f; stroke:none;" d="M23 165L24 166L23 165z"/>
<path style="fill:#222222; stroke:none;" d="M24.6667 165.333L25.3333 165.667L24.6667 165.333z"/>
<path style="fill:#444444; stroke:none;" d="M26 165L27 166L26 165z"/>
<path style="fill:#fefefe; stroke:none;" d="M28 165L29 166L28 165z"/>
<path style="fill:#6f6f6f; stroke:none;" d="M30 165L31 166L30 165z"/>
<path style="fill:#a9a9a9; stroke:none;" d="M31 165L32 166L31 165M43 165L44 166L43 165M109 165L110 166L109 165z"/>
<path style="fill:#6f6f6f; stroke:none;" d="M137 165L138 166L137 165M164 165L164 168L165 168L164 165z"/>
<path style="fill:#a9a9a9; stroke:none;" d="M18.3333 166.667L18.6667 167.333L18.3333 166.667z"/>
<path style="fill:#6f6f6f; stroke:none;" d="M19 166L20 167L19 166z"/>
<path style="fill:#222222; stroke:none;" d="M20 166L21 167L20 166z"/>
<path style="fill:#444444; stroke:none;" d="M21 166L22 167L21 166z"/>
<path style="fill:#6f6f6f; stroke:none;" d="M22 166L23 167L22 166M27 166L28 167L27 166z"/>
<path style="fill:#a9a9a9; stroke:none;" d="M44 166L44 169L45 169L44 166z"/>
<path style="fill:#6f6f6f; stroke:none;" d="M109 166L110 167L109 166z"/>
<path style="fill:#a9a9a9; stroke:none;" d="M114 166L113 173L114 173L114 166z"/>
<path style="fill:#222222; stroke:none;" d="M137 166L138 167L137 166z"/>
<path style="fill:#444444; stroke:none;" d="M16.6667 167.333L17.3333 167.667L16.6667 167.333z"/>
<path style="fill:#fefefe; stroke:none;" d="M15 169L15 170L24 168L15 169z"/>
<path style="fill:#6f6f6f; stroke:none;" d="M25 167L26 168L25 167z"/>
<path style="fill:#a9a9a9; stroke:none;" d="M80 167L81 168L80 167M109 167L110 168L109 167M137 167L139 171L137 167z"/>
<path style="fill:#6f6f6f; stroke:none;" d="M14 168L15 169L14 168z"/>
<path style="fill:#222222; stroke:none;" d="M15 168L16 169L15 168z"/>
<path style="fill:#a9a9a9; stroke:none;" d="M21 168L22 169L21 168z"/>
<path style="fill:#444444; stroke:none;" d="M22 168L23 169L22 168z"/>
<path style="fill:#6f6f6f; stroke:none;" d="M138 168L139 169L138 168z"/>
<path style="fill:#444444; stroke:none;" d="M164.333 168.667L164.667 169.333L164.333 168.667z"/>
<path style="fill:#222222; stroke:none;" d="M13 169L14 170L13 169z"/>
<path style="fill:#a9a9a9; stroke:none;" d="M14 169L15 170L14 169M18 169L19 170L18 169z"/>
<path style="fill:#6f6f6f; stroke:none;" d="M19.6667 169.333L20.3333 169.667L19.6667 169.333M44.6667 169.333L45.3333 169.667L44.6667 169.333z"/>
<path style="fill:#a9a9a9; stroke:none;" d="M48 169L49 170L48 169z"/>
<path style="fill:#6f6f6f; stroke:none;" d="M49.6667 169.333L50.3333 169.667L49.6667 169.333z"/>
<path style="fill:#a9a9a9; stroke:none;" d="M51 169L52 170L51 169M79 169L80 170L79 169M108.333 169.667L108.667 170.333L108.333 169.667z"/>
<path style="fill:#222222; stroke:none;" d="M138 169L139 170L138 169z"/>
<path style="fill:#a9a9a9; stroke:none;" d="M11 170L13 172L11 170z"/>
<path style="fill:#222222; stroke:none;" d="M12 170L13 171L12 170z"/>
<path style="fill:#6f6f6f; stroke:none;" d="M15.6667 170.333L16.3333 170.667L15.6667 170.333z"/>
<path style="fill:#a9a9a9; stroke:none;" d="M17 170L18 171L17 170z"/>
<path style="fill:#6f6f6f; stroke:none;" d="M43 170L44 171L43 170M46 170L47 171L46 170z"/>
<path style="fill:#a9a9a9; stroke:none;" d="M47 170L48 171L47 170M52 170L53 171L52 170z"/>
<path style="fill:#444444; stroke:none;" d="M53.6667 170.333L54.3333 170.667L53.6667 170.333z"/>
<path style="fill:#6f6f6f; stroke:none;" d="M55 170L55 171L58 171L55 170z"/>
<path style="fill:#a9a9a9; stroke:none;" d="M58.6667 170.333L59.3333 170.667L58.6667 170.333z"/>
<path style="fill:#6f6f6f; stroke:none;" d="M79.3333 170.667L79.6667 171.333L79.3333 170.667M139 170L138 173L139 170z"/>
<path style="fill:#222222; stroke:none;" d="M164 170L164 174L165 174L164 170z"/>
<path style="fill:#444444; stroke:none;" d="M11 171L12 172L11 171z"/>
<path style="fill:#6f6f6f; stroke:none;" d="M13 171L14 172L13 171z"/>
<path style="fill:#a9a9a9; stroke:none;" d="M42 171L42 173L44 171L42 171M46 171L47 172L46 171M60.6667 171.333L61.3333 171.667L60.6667 171.333z"/>
<path style="fill:#6f6f6f; stroke:none;" d="M62.6667 171.333L63.3333 171.667L62.6667 171.333z"/>
<path style="fill:#444444; stroke:none;" d="M64.6667 171.333L65.3333 171.667L64.6667 171.333z"/>
<path style="fill:#6f6f6f; stroke:none;" d="M66.6667 171.333L67.3333 171.667L66.6667 171.333z"/>
<path style="fill:#a9a9a9; stroke:none;" d="M68.6667 171.333L69.3333 171.667L68.6667 171.333z"/>
<path style="fill:#6f6f6f; stroke:none;" d="M108.333 171.667L108.667 172.333L108.333 171.667z"/>
<path style="fill:#444444; stroke:none;" d="M138 171L139 172L138 171z"/>
<path style="fill:#6f6f6f; stroke:none;" d="M10.6667 172.333L11.3333 172.667L10.6667 172.333z"/>
<path style="fill:#a9a9a9; stroke:none;" d="M47 172L48 173L47 172M71 172L72 173L71 172z"/>
<path style="fill:#6f6f6f; stroke:none;" d="M72 172L73 173L72 172z"/>
<path style="fill:#444444; stroke:none;" d="M73 172L73 173L78 173L73 172z"/>
<path style="fill:#a9a9a9; stroke:none;" d="M78 172L79 173L78 172z"/>
<path style="fill:#6f6f6f; stroke:none;" d="M140 172L141 173L140 172z"/>
<path style="fill:#a9a9a9; stroke:none;" d="M10.6667 173.333L11.3333 173.667L10.6667 173.333z"/>
<path style="fill:#444444; stroke:none;" d="M41 173L42 174L41 173z"/>
<path style="fill:#6f6f6f; stroke:none;" d="M47 173L48 174L47 173M113 173L114 174L113 173z"/>
<path style="fill:#a9a9a9; stroke:none;" d="M138 173L139 174L138 173z"/>
<path style="fill:#444444; stroke:none;" d="M140 173L141 174L140 173M11 174L12 175L11 174M40 174L41 175L40 174z"/>
<path style="fill:#a9a9a9; stroke:none;" d="M48 174L49 175L48 174M107 174L108 175L107 174M113 174L114 175L113 174M137 174L138 175L137 174M140.667 174.333L141.333 174.667L140.667 174.333z"/>
<path style="fill:#444444; stroke:none;" d="M164.333 174.667L164.667 175.333L164.333 174.667z"/>
<path style="fill:#222222; stroke:none;" d="M12 175L13 176L12 175z"/>
<path style="fill:#6f6f6f; stroke:none;" d="M13 175L14 176L13 175z"/>
<path style="fill:#a9a9a9; stroke:none;" d="M14 175L13 177L15 177L14 175M38 175L39 176L38 175z"/>
<path style="fill:#6f6f6f; stroke:none;" d="M39 175L40 176L39 175z"/>
<path style="fill:#444444; stroke:none;" d="M48 175L49 176L48 175z"/>
<path style="fill:#6f6f6f; stroke:none;" d="M107 175L108 176L107 175M137.333 175.667L137.667 176.333L137.333 175.667z"/>
<path style="fill:#444444; stroke:none;" d="M141 175L142 176L141 175z"/>
<path style="fill:#6f6f6f; stroke:none;" d="M15 176L16 177L15 176z"/>
<path style="fill:#444444; stroke:none;" d="M16.6667 176.333L17.3333 176.667L16.6667 176.333z"/>
<path style="fill:#222222; stroke:none;" d="M18 176L18 177L21 177L18 176z"/>
<path style="fill:#6f6f6f; stroke:none;" d="M21 176L21 177L24 177L21 176z"/>
<path style="fill:#a9a9a9; stroke:none;" d="M24 176L27 179L24 176z"/>
<path style="fill:#444444; stroke:none;" d="M37 176L38 177L37 176z"/>
<path style="fill:#6f6f6f; stroke:none;" d="M48 176L49 177L48 176z"/>
<path style="fill:#a9a9a9; stroke:none;" d="M107 176L108 177L107 176z"/>
<path style="fill:#6f6f6f; stroke:none;" d="M141 176L142 177L141 176z"/>
<path style="fill:#a9a9a9; stroke:none;" d="M142 176L143 177L142 176z"/>
<path style="fill:#6f6f6f; stroke:none;" d="M164 176L166 179L164 176M26 177L27 178L26 177z"/>
<path style="fill:#a9a9a9; stroke:none;" d="M29 177L31 179L31 177L29 177M35 177L34 179L36 179L35 177M48 177L50 180L48 177M137 177L138 178L137 177z"/>
<path style="fill:#222222; stroke:none;" d="M142 177L143 178L142 177z"/>
<path style="fill:#a9a9a9; stroke:none;" d="M165 177L166 178L165 177z"/>
<path style="fill:#222222; stroke:none;" d="M27 178L28 179L27 178z"/>
<path style="fill:#6f6f6f; stroke:none;" d="M31 178L31 179L34 179L31 178M106 178L107 179L106 178z"/>
<path style="fill:#a9a9a9; stroke:none;" d="M136 178L137 179L136 178z"/>
<path style="fill:#6f6f6f; stroke:none;" d="M142 178L143 179L142 178z"/>
<path style="fill:#a9a9a9; stroke:none;" d="M143 178L144 179L143 178M164 178L165 179L164 178z"/>
<path style="fill:#222222; stroke:none;" d="M25 179L24 181L25 179z"/>
<path style="fill:#6f6f6f; stroke:none;" d="M26 179L27 180L26 179z"/>
<path style="fill:#444444; stroke:none;" d="M35 179L36 180L35 179z"/>
<path style="fill:#6f6f6f; stroke:none;" d="M36.6667 179.333L37.3333 179.667L36.6667 179.333z"/>
<path style="fill:#a9a9a9; stroke:none;" d="M38.6667 179.333L39.3333 179.667L38.6667 179.333M105 179L106 180L105 179z"/>
<path style="fill:#6f6f6f; stroke:none;" d="M136 179L137 180L136 179z"/>
<path style="fill:#444444; stroke:none;" d="M143.333 179.667L143.667 180.333L143.333 179.667z"/>
<path style="fill:#222222; stroke:none;" d="M165.333 179.667L165.667 180.333L165.333 179.667z"/>
<path style="fill:#a9a9a9; stroke:none;" d="M25.3333 180.667L25.6667 181.333L25.3333 180.667M31 180L31 183L33 180L31 180z"/>
<path style="fill:#6f6f6f; stroke:none;" d="M35 180L36 181L35 180M41 180L42 181L41 180z"/>
<path style="fill:#444444; stroke:none;" d="M42 180L43 181L42 180z"/>
<path style="fill:#a9a9a9; stroke:none;" d="M43 180L44 181L43 180z"/>
<path style="fill:#6f6f6f; stroke:none;" d="M49 180L50 181L49 180M105.333 180.667L105.667 181.333L105.333 180.667z"/>
<path style="fill:#a9a9a9; stroke:none;" d="M113 180L114 181L113 180M135.667 180.333L136.333 180.667L135.667 180.333z"/>
<path style="fill:#444444; stroke:none;" d="M24 181L25 182L24 181M26 181L27 182L26 181z"/>
<path style="fill:#6f6f6f; stroke:none;" d="M27 181L28 182L27 181z"/>
<path style="fill:#a9a9a9; stroke:none;" d="M28 181L29 182L28 181z"/>
<path style="fill:#444444; stroke:none;" d="M29.3333 181.667L29.6667 182.333L29.3333 181.667z"/>
<path style="fill:#6f6f6f; stroke:none;" d="M33 181L34 182L33 181z"/>
<path style="fill:#a9a9a9; stroke:none;" d="M34 181L34 183L36 181L34 181M44 181L45 182L44 181z"/>
<path style="fill:#6f6f6f; stroke:none;" d="M45.6667 181.333L46.3333 181.667L45.6667 181.333z"/>
<path style="fill:#a9a9a9; stroke:none;" d="M47.6667 181.333L48.3333 181.667L47.6667 181.333z"/>
<path style="fill:#444444; stroke:none;" d="M49 181L50 182L49 181z"/>
<path style="fill:#6f6f6f; stroke:none;" d="M113 181L114 182L113 181M134.333 181.667L134.667 182.333L134.333 181.667z"/>
<path style="fill:#444444; stroke:none;" d="M144 181L145 182L144 181z"/>
<path style="fill:#a9a9a9; stroke:none;" d="M165.667 181.333L166.333 181.667L165.667 181.333z"/>
<path style="fill:#222222; stroke:none;" d="M49 182L50 183L49 182z"/>
<path style="fill:#a9a9a9; stroke:none;" d="M105 182L106 183L105 182M113 182L114 183L113 182z"/>
<path style="fill:#222222; stroke:none;" d="M144 182L145 183L144 182M166 182L167 183L166 182z"/>
<path style="fill:#6f6f6f; stroke:none;" d="M29 183L30 184L29 183z"/>
<path style="fill:#a9a9a9; stroke:none;" d="M30.3333 183.667L30.6667 184.333L30.3333 183.667z"/>
<path style="fill:#6f6f6f; stroke:none;" d="M49 183L50 184L49 183z"/>
<path style="fill:#a9a9a9; stroke:none;" d="M104.333 183.667L104.667 184.333L104.333 183.667M133 183L134 189L135 189L133 183z"/>
<path style="fill:#6f6f6f; stroke:none;" d="M144 183L145 184L144 183z"/>
<path style="fill:#a9a9a9; stroke:none;" d="M145 183L144 186L145 183z"/>
<path style="fill:#444444; stroke:none;" d="M166 183L168 185L166 183M49 184L50 185L49 184z"/>
<path style="fill:#a9a9a9; stroke:none;" d="M114 184L114 188L115 188L114 184M166 184L167 185L166 184M28 185L30 187L30 185L28 185z"/>
<path style="fill:#222222; stroke:none;" d="M49 185L50 186L49 185z"/>
<path style="fill:#444444; stroke:none;" d="M103 185L104 186L103 185z"/>
<path style="fill:#222222; stroke:none;" d="M167 185L168 186L167 185z"/>
<path style="fill:#6f6f6f; stroke:none;" d="M28 186L29 187L28 186M49 186L50 187L49 186z"/>
<path style="fill:#a9a9a9; stroke:none;" d="M103 186L104 187L103 186z"/>
<path style="fill:#444444; stroke:none;" d="M145 186L146 187L145 186z"/>
<path style="fill:#a9a9a9; stroke:none;" d="M167 186L168 187L167 186z"/>
<path style="fill:#6f6f6f; stroke:none;" d="M168 186L169 187L168 186z"/>
<path style="fill:#a9a9a9; stroke:none;" d="M49 187L50 188L49 187z"/>
<path style="fill:#222222; stroke:none;" d="M102 187L103 188L102 187M145 187L146 188L145 187M168 187L169 188L168 187z"/>
<path style="fill:#a9a9a9; stroke:none;" d="M50 188L50 194L51 194L50 188M102 188L103 189L102 188M145.667 188.333L146.333 188.667L145.667 188.333z"/>
<path style="fill:#6f6f6f; stroke:none;" d="M168 188L169 189L168 188M101.333 189.667L101.667 190.333L101.333 189.667z"/>
<path style="fill:#a9a9a9; stroke:none;" d="M115 189L116 190L115 189z"/>
<path style="fill:#6f6f6f; stroke:none;" d="M134.333 189.667L134.667 190.333L134.333 189.667z"/>
<path style="fill:#222222; stroke:none;" d="M146 189L147 190L146 189z"/>
<path style="fill:#6f6f6f; stroke:none;" d="M169 189L170 190L169 189M115.333 190.667L115.667 191.333L115.333 190.667z"/>
<path style="fill:#444444; stroke:none;" d="M146 190L147 191L146 190z"/>
<path style="fill:#222222; stroke:none;" d="M169 190L170 191L169 190z"/>
<path style="fill:#6f6f6f; stroke:none;" d="M100 191L101 192L100 191z"/>
<path style="fill:#444444; stroke:none;" d="M134 191L135 192L134 191M147 191L148 192L147 191z"/>
<path style="fill:#a9a9a9; stroke:none;" d="M169.667 191.333L170.333 191.667L169.667 191.333M99 192L100 193L99 192M115 192L116 193L115 192z"/>
<path style="fill:#222222; stroke:none;" d="M134 192L134 197L135 197L134 192z"/>
<path style="fill:#6f6f6f; stroke:none;" d="M147 192L148 193L147 192z"/>
<path style="fill:#a9a9a9; stroke:none;" d="M148 192L149 193L148 192z"/>
<path style="fill:#222222; stroke:none;" d="M170 192L171 193L170 192z"/>
<path style="fill:#6f6f6f; stroke:none;" d="M99 193L100 194L99 193z"/>
<path style="fill:#a9a9a9; stroke:none;" d="M116 193L117 194L116 193z"/>
<path style="fill:#222222; stroke:none;" d="M148 193L149 194L148 193z"/>
<path style="fill:#6f6f6f; stroke:none;" d="M170 193L171 194L170 193z"/>
<path style="fill:#444444; stroke:none;" d="M50 194L51 195L50 194z"/>
<path style="fill:#a9a9a9; stroke:none;" d="M98 194L99 195L98 194z"/>
<path style="fill:#6f6f6f; stroke:none;" d="M116.333 194.667L116.667 195.333L116.333 194.667z"/>
<path style="fill:#222222; stroke:none;" d="M149 194L150 195L149 194z"/>
<path style="fill:#444444; stroke:none;" d="M171 194L172 195L171 194z"/>
<path style="fill:#a9a9a9; stroke:none;" d="M50 195L50 196L53 196L50 195M57 195L57 196L67 196L57 195z"/>
<path style="fill:#6f6f6f; stroke:none;" d="M67.6667 195.333L68.3333 195.667L67.6667 195.333z"/>
<path style="fill:#222222; stroke:none;" d="M69 195L69 196L72 196L69 195z"/>
<path style="fill:#444444; stroke:none;" d="M72 195L72 196L75 196L72 195z"/>
<path style="fill:#6f6f6f; stroke:none;" d="M75 195L75 196L79 196L75 195z"/>
<path style="fill:#444444; stroke:none;" d="M79 195L80 196L79 195z"/>
<path style="fill:#6f6f6f; stroke:none;" d="M80 195L80 196L83 196L80 195z"/>
<path style="fill:#a9a9a9; stroke:none;" d="M83 195L84 196L83 195M97 195L98 196L97 195z"/>
<path style="fill:#222222; stroke:none;" d="M150 195L151 196L150 195M171 195L172 196L171 195z"/>
<path style="fill:#6f6f6f; stroke:none;" d="M71 196L72 197L71 196z"/>
<path style="fill:#a9a9a9; stroke:none;" d="M85 196L86 197L85 196z"/>
<path style="fill:#6f6f6f; stroke:none;" d="M86.6667 196.333L87.3333 196.667L86.6667 196.333z"/>
<path style="fill:#a9a9a9; stroke:none;" d="M88.6667 196.333L89.3333 196.667L88.6667 196.333M95 196L96 197L95 196z"/>
<path style="fill:#6f6f6f; stroke:none;" d="M96 196L97 197L96 196z"/>
<path style="fill:#a9a9a9; stroke:none;" d="M116.333 196.667L116.667 197.333L116.333 196.667z"/>
<path style="fill:#222222; stroke:none;" d="M151 196L152 197L151 196z"/>
<path style="fill:#a9a9a9; stroke:none;" d="M171 196L172 197L171 196z"/>
<path style="fill:#6f6f6f; stroke:none;" d="M172 196L173 197L172 196z"/>
<path style="fill:#a9a9a9; stroke:none;" d="M71 197L72 198L71 197M90 197L90 198L94 198L90 197z"/>
<path style="fill:#6f6f6f; stroke:none;" d="M134.333 197.667L134.667 198.333L134.333 197.667z"/>
<path style="fill:#222222; stroke:none;" d="M152 197L153 198L152 197z"/>
<path style="fill:#a9a9a9; stroke:none;" d="M153 197L154 198L153 197z"/>
<path style="fill:#222222; stroke:none;" d="M172 197L173 198L172 197z"/>
<path style="fill:#a9a9a9; stroke:none;" d="M70 198L71 199L70 198z"/>
<path style="fill:#444444; stroke:none;" d="M90 198L91 199L90 198z"/>
<path style="fill:#6f6f6f; stroke:none;" d="M153 198L154 199L153 198z"/>
<path style="fill:#222222; stroke:none;" d="M154 198L155 199L154 198z"/>
<path style="fill:#a9a9a9; stroke:none;" d="M155 198L156 199L155 198M172 198L173 199L172 198z"/>
<path style="fill:#444444; stroke:none;" d="M173.333 198.667L173.667 199.333L173.333 198.667M70 199L71 200L70 199z"/>
<path style="fill:#a9a9a9; stroke:none;" d="M90 199L91 200L90 199M117 199L118 200L117 199M134 199L134 206L135 206L136 199L134 199z"/>
<path style="fill:#444444; stroke:none;" d="M155 199L156 200L155 199z"/>
<path style="fill:#6f6f6f; stroke:none;" d="M156.333 199.667L156.667 200.333L156.333 199.667M70 200L71 201L70 200z"/>
<path style="fill:#a9a9a9; stroke:none;" d="M89 200L90 201L89 200z"/>
<path style="fill:#6f6f6f; stroke:none;" d="M117 200L117 205L118 205L117 200z"/>
<path style="fill:#a9a9a9; stroke:none;" d="M157 200L158 201L157 200z"/>
<path style="fill:#222222; stroke:none;" d="M174 200L175 201L174 200z"/>
<path style="fill:#a9a9a9; stroke:none;" d="M69.6667 201.333L70.3333 201.667L69.6667 201.333z"/>
<path style="fill:#444444; stroke:none;" d="M89 201L90 202L89 201z"/>
<path style="fill:#222222; stroke:none;" d="M157 201L158 202L157 201z"/>
<path style="fill:#6f6f6f; stroke:none;" d="M174 201L175 202L174 201z"/>
<path style="fill:#444444; stroke:none;" d="M69 202L70 203L69 202z"/>
<path style="fill:#6f6f6f; stroke:none;" d="M89 202L88 204L89 202z"/>
<path style="fill:#a9a9a9; stroke:none;" d="M157 202L158 203L157 202z"/>
<path style="fill:#444444; stroke:none;" d="M158.333 202.667L158.667 203.333L158.333 202.667M175.333 202.667L175.667 203.333L175.333 202.667z"/>
<path style="fill:#6f6f6f; stroke:none;" d="M69 203L70 204L69 203z"/>
<path style="fill:#a9a9a9; stroke:none;" d="M89 203L90 204L89 203z"/>
<path style="fill:#444444; stroke:none;" d="M68.3333 204.667L68.6667 205.333L68.3333 204.667z"/>
<path style="fill:#222222; stroke:none;" d="M88 204L89 205L88 204z"/>
<path style="fill:#a9a9a9; stroke:none;" d="M158.333 204.667L158.667 205.333L158.333 204.667z"/>
<path style="fill:#6f6f6f; stroke:none;" d="M159 204L160 205L159 204z"/>
<path style="fill:#444444; stroke:none;" d="M176 204L177 205L176 204z"/>
<path style="fill:#a9a9a9; stroke:none;" d="M87.6667 205.333L88.3333 205.667L87.6667 205.333M117 205L117 224L118 224L117 205z"/>
<path style="fill:#444444; stroke:none;" d="M159 205L160 206L159 205z"/>
<path style="fill:#6f6f6f; stroke:none;" d="M176 205L177 206L176 205z"/>
<path style="fill:#a9a9a9; stroke:none;" d="M177 205L178 206L177 205z"/>
<path style="fill:#6f6f6f; stroke:none;" d="M68 206L69 207L68 206z"/>
<path style="fill:#222222; stroke:none;" d="M87 206L88 207L87 206M159.333 206.667L159.667 207.333L159.333 206.667M177 206L178 207L177 206z"/>
<path style="fill:#a9a9a9; stroke:none;" d="M67.6667 207.333L68.3333 207.667L67.6667 207.333z"/>
<path style="fill:#444444; stroke:none;" d="M87 207L88 208L87 207z"/>
<path style="fill:#a9a9a9; stroke:none;" d="M134 207L134 222L135 222L134 207z"/>
<path style="fill:#444444; stroke:none;" d="M177 207L178 208L177 207z"/>
<path style="fill:#6f6f6f; stroke:none;" d="M67 208L68 209L67 208z"/>
<path style="fill:#a9a9a9; stroke:none;" d="M86.6667 208.333L87.3333 208.667L86.6667 208.333z"/>
<path style="fill:#6f6f6f; stroke:none;" d="M159 208L160 209L159 208z"/>
<path style="fill:#a9a9a9; stroke:none;" d="M160 208L159 210L160 208z"/>
<path style="fill:#6f6f6f; stroke:none;" d="M178 208L179 209L178 208z"/>
<path style="fill:#444444; stroke:none;" d="M67 209L68 210L67 209M86 209L87 210L86 209z"/>
<path style="fill:#222222; stroke:none;" d="M160.333 209.667L160.667 210.333L160.333 209.667M178 209L179 210L178 209z"/>
<path style="fill:#6f6f6f; stroke:none;" d="M67 210L68 211L67 210z"/>
<path style="fill:#222222; stroke:none;" d="M86 210L87 211L86 210z"/>
<path style="fill:#6f6f6f; stroke:none;" d="M178 210L179 211L178 210z"/>
<path style="fill:#a9a9a9; stroke:none;" d="M66.6667 211.333L67.3333 211.667L66.6667 211.333M85.6667 211.333L86.3333 211.667L85.6667 211.333z"/>
<path style="fill:#6f6f6f; stroke:none;" d="M160.667 211.333L161.333 211.667L160.667 211.333z"/>
<path style="fill:#444444; stroke:none;" d="M179.333 211.667L179.667 212.333L179.333 211.667M66.3333 212.667L66.6667 213.333L66.3333 212.667z"/>
<path style="fill:#6f6f6f; stroke:none;" d="M85 212L86 213L85 212z"/>
<path style="fill:#222222; stroke:none;" d="M161.333 212.667L161.667 213.333L161.333 212.667M85 213L86 214L85 213z"/>
<path style="fill:#a9a9a9; stroke:none;" d="M179 213L180 214L179 213z"/>
<path style="fill:#6f6f6f; stroke:none;" d="M180 213L181 214L180 213M66 214L67 215L66 214z"/>
<path style="fill:#444444; stroke:none;" d="M85 214L86 215L85 214z"/>
<path style="fill:#6f6f6f; stroke:none;" d="M161 214L162 215L161 214z"/>
<path style="fill:#a9a9a9; stroke:none;" d="M162 214L163 215L162 214z"/>
<path style="fill:#222222; stroke:none;" d="M180 214L181 215L180 214z"/>
<path style="fill:#a9a9a9; stroke:none;" d="M65 215L66 216L65 215M85 215L86 216L85 215z"/>
<path style="fill:#222222; stroke:none;" d="M162.333 215.667L162.667 216.333L162.333 215.667z"/>
<path style="fill:#6f6f6f; stroke:none;" d="M180 215L181 216L180 215z"/>
<path style="fill:#444444; stroke:none;" d="M65 216L66 217L65 216M84.3333 216.667L84.6667 217.333L84.3333 216.667z"/>
<path style="fill:#a9a9a9; stroke:none;" d="M180.667 216.333L181.333 216.667L180.667 216.333z"/>
<path style="fill:#6f6f6f; stroke:none;" d="M65 217L66 218L65 217M162 217L164 219L162 217z"/>
<path style="fill:#222222; stroke:none;" d="M181 217L182 218L181 217z"/>
<path style="fill:#a9a9a9; stroke:none;" d="M64 218L65 222L66 222L64 218M83.6667 218.333L84.3333 218.667L83.6667 218.333M162 218L163 219L162 218z"/>
<path style="fill:#444444; stroke:none;" d="M181 218L182 219L181 218z"/>
<path style="fill:#6f6f6f; stroke:none;" d="M83 219L84 220L83 219z"/>
<path style="fill:#222222; stroke:none;" d="M163 219L164 220L163 219z"/>
<path style="fill:#a9a9a9; stroke:none;" d="M181.667 219.333L182.333 219.667L181.667 219.333z"/>
<path style="fill:#222222; stroke:none;" d="M83 220L84 221L83 220z"/>
<path style="fill:#444444; stroke:none;" d="M163 220L164 221L163 220z"/>
<path style="fill:#222222; stroke:none;" d="M182 220L183 221L182 220M66 221L67 222L66 221z"/>
<path style="fill:#6f6f6f; stroke:none;" d="M67 221L68 222L67 221z"/>
<path style="fill:#a9a9a9; stroke:none;" d="M83 221L84 222L83 221M163.667 221.333L164.333 221.667L163.667 221.333z"/>
<path style="fill:#6f6f6f; stroke:none;" d="M182 221L183 222L182 221z"/>
<path style="fill:#a9a9a9; stroke:none;" d="M68 222L69 223L68 222z"/>
<path style="fill:#6f6f6f; stroke:none;" d="M69 222L70 223L69 222z"/>
<path style="fill:#444444; stroke:none;" d="M70.6667 222.333L71.3333 222.667L70.6667 222.333z"/>
<path style="fill:#a9a9a9; stroke:none;" d="M72 222L73 223L72 222z"/>
<path style="fill:#444444; stroke:none;" d="M82 222L83 223L82 222z"/>
<path style="fill:#6f6f6f; stroke:none;" d="M134 222L134 228L135 228L134 222z"/>
<path style="fill:#222222; stroke:none;" d="M164.333 222.667L164.667 223.333L164.333 222.667z"/>
<path style="fill:#a9a9a9; stroke:none;" d="M182.667 222.333L183.333 222.667L182.667 222.333M70 223L70 226L71 226L70 223M74 223L74 224L77 224L74 223z"/>
<path style="fill:#6f6f6f; stroke:none;" d="M82 223L83 224L82 223z"/>
<path style="fill:#444444; stroke:none;" d="M183 223L184 224L183 223z"/>
<path style="fill:#a9a9a9; stroke:none;" d="M79 224L80 225L79 224z"/>
<path style="fill:#6f6f6f; stroke:none;" d="M80 224L81 225L80 224z"/>
<path style="fill:#444444; stroke:none;" d="M81 224L82 225L81 224z"/>
<path style="fill:#6f6f6f; stroke:none;" d="M117.333 224.667L117.667 225.333L117.333 224.667M164 224L165 225L164 224z"/>
<path style="fill:#222222; stroke:none;" d="M183 224L184 225L183 224z"/>
<path style="fill:#a9a9a9; stroke:none;" d="M81 225L82 226L81 225z"/>
<path style="fill:#6f6f6f; stroke:none;" d="M165 225L166 226L165 225M183 225L184 226L183 225z"/>
<path style="fill:#444444; stroke:none;" d="M117 226L118 227L117 226z"/>
<path style="fill:#222222; stroke:none;" d="M165 226L166 227L165 226z"/>
<path style="fill:#a9a9a9; stroke:none;" d="M183.667 226.333L184.333 226.667L183.667 226.333M69 227L70 228L69 227z"/>
<path style="fill:#6f6f6f; stroke:none;" d="M117 227L117 230L118 230L117 227M165 227L166 228L165 227M184 227L185 228L184 227M69 228L69 231L70 231L69 228M81 228L79 234L81 228z"/>
<path style="fill:#a9a9a9; stroke:none;" d="M134 228L135 241L136 241L134 228z"/>
<path style="fill:#6f6f6f; stroke:none;" d="M166 228L167 229L166 228z"/>
<path style="fill:#222222; stroke:none;" d="M184 228L185 229L184 228z"/>
<path style="fill:#444444; stroke:none;" d="M166 229L167 230L166 229M184 229L185 230L184 229z"/>
<path style="fill:#222222; stroke:none;" d="M82 230L83 231L82 230z"/>
<path style="fill:#6f6f6f; stroke:none;" d="M83 230L84 231L83 230z"/>
<path style="fill:#a9a9a9; stroke:none;" d="M117 230L118 231L117 230M166 230L167 231L166 230M184 230L184 232L186 232L184 230M69 231L70 232L69 231z"/>
<path style="fill:#fefefe; stroke:none;" d="M82 231L80 234L86 239L82 231z"/>
<path style="fill:#444444; stroke:none;" d="M83 231L84 232L83 231z"/>
<path style="fill:#a9a9a9; stroke:none;" d="M167 231L168 232L167 231z"/>
<path style="fill:#444444; stroke:none;" d="M79 232L80 233L79 232z"/>
<path style="fill:#222222; stroke:none;" d="M83 232L84 233L83 232z"/>
<path style="fill:#444444; stroke:none;" d="M167 232L168 233L167 232z"/>
<path style="fill:#6f6f6f; stroke:none;" d="M185 232L186 233L185 232M67 233L68 234L67 233z"/>
<path style="fill:#444444; stroke:none;" d="M68 233L69 234L68 233z"/>
<path style="fill:#a9a9a9; stroke:none;" d="M69 233L70 234L69 233M72 233L73 234L72 233M76 233L77 234L76 233z"/>
<path style="fill:#6f6f6f; stroke:none;" d="M77 233L78 234L77 233z"/>
<path style="fill:#a9a9a9; stroke:none;" d="M78 233L79 234L78 233z"/>
<path style="fill:#6f6f6f; stroke:none;" d="M83 233L84 234L83 233z"/>
<path style="fill:#a9a9a9; stroke:none;" d="M116.333 233.667L116.667 234.333L116.333 233.667z"/>
<path style="fill:#6f6f6f; stroke:none;" d="M167 233L168 234L167 233z"/>
<path style="fill:#222222; stroke:none;" d="M185 233L186 234L185 233z"/>
<path style="fill:#a9a9a9; stroke:none;" d="M67 234L68 235L67 234M75 234L76 235L75 234M80 234L82 236L80 234M83 234L84 235L83 234M168 234L169 235L168 234z"/>
<path style="fill:#444444; stroke:none;" d="M185 234L185 238L186 238L185 234z"/>
<path style="fill:#6f6f6f; stroke:none;" d="M66 235L67 236L66 235z"/>
<path style="fill:#444444; stroke:none;" d="M80 235L81 236L80 235z"/>
<path style="fill:#6f6f6f; stroke:none;" d="M82 235L83 236L82 235z"/>
<path style="fill:#222222; stroke:none;" d="M84 235L85 236L84 235z"/>
<path style="fill:#6f6f6f; stroke:none;" d="M116.333 235.667L116.667 236.333L116.333 235.667z"/>
<path style="fill:#222222; stroke:none;" d="M168 235L169 236L168 235M66 236L67 237L66 236z"/>
<path style="fill:#a9a9a9; stroke:none;" d="M83 236L84 237L83 236z"/>
<path style="fill:#222222; stroke:none;" d="M85 236L86 237L85 236z"/>
<path style="fill:#444444; stroke:none;" d="M168 236L168 239L169 239L168 236M66 237L66 240L67 240L66 237z"/>
<path style="fill:#6f6f6f; stroke:none;" d="M83 237L84 238L83 237z"/>
<path style="fill:#444444; stroke:none;" d="M86 237L88 239L86 237z"/>
<path style="fill:#a9a9a9; stroke:none;" d="M115 237L116 238L115 237z"/>
<path style="fill:#6f6f6f; stroke:none;" d="M168 237L169 238L168 237M170 237L171 238L170 237z"/>
<path style="fill:#a9a9a9; stroke:none;" d="M171 237L173 239L171 237M83 238L84 239L83 238z"/>
<path style="fill:#6f6f6f; stroke:none;" d="M86 238L87 239L86 238z"/>
<path style="fill:#444444; stroke:none;" d="M115 238L116 239L115 238z"/>
<path style="fill:#fefefe; stroke:none;" d="M169 238L169 242L165 242L166 244L163 243L164 245L161 244L162 246L161 246L149 246L150 250L155 249L155 250L153 251C163.463 254.488 169.141 253.108 179 249C181.501 247.958 185.389 247.953 187 245C188.419 242.399 185.558 241.769 186 240L169 238z"/>
<path style="fill:#444444; stroke:none;" d="M173 238L174 239L173 238z"/>
<path style="fill:#222222; stroke:none;" d="M174.667 238.333L175.333 238.667L174.667 238.333z"/>
<path style="fill:#444444; stroke:none;" d="M176 238L177 239L176 238z"/>
<path style="fill:#6f6f6f; stroke:none;" d="M177 238L177 239L182 240L182 239L177 238z"/>
<path style="fill:#a9a9a9; stroke:none;" d="M180 238L180 239L184 239L180 238z"/>
<path style="fill:#6f6f6f; stroke:none;" d="M184.333 238.667L184.667 239.333L184.333 238.667z"/>
<path style="fill:#222222; stroke:none;" d="M185 238L186 239L185 238z"/>
<path style="fill:#6f6f6f; stroke:none;" d="M84 239L85 240L84 239z"/>
<path style="fill:#a9a9a9; stroke:none;" d="M84 241L87 239L84 241z"/>
<path style="fill:#444444; stroke:none;" d="M88 239L89 240L88 239z"/>
<path style="fill:#a9a9a9; stroke:none;" d="M115 239L116 240L115 239M167 239L167 242L168 242L167 239z"/>
<path style="fill:#6f6f6f; stroke:none;" d="M168 239L169 240L168 239z"/>
<path style="fill:#a9a9a9; stroke:none;" d="M178.667 239.333L179.333 239.667L178.667 239.333z"/>
<path style="fill:#444444; stroke:none;" d="M182.667 239.333L183.333 239.667L182.667 239.333z"/>
<path style="fill:#a9a9a9; stroke:none;" d="M185 239L186 240L185 239z"/>
<path style="fill:#6f6f6f; stroke:none;" d="M186 239L187 240L186 239M66 240L67 241L66 240z"/>
<path style="fill:#a9a9a9; stroke:none;" d="M89 240L90 241L89 240z"/>
<path style="fill:#444444; stroke:none;" d="M90 240L91 241L90 240z"/>
<path style="fill:#6f6f6f; stroke:none;" d="M91 240L92 241L91 240z"/>
<path style="fill:#a9a9a9; stroke:none;" d="M111 240L111 245L116 241L115 241L113 244L114 240L111 240z"/>
<path style="fill:#6f6f6f; stroke:none;" d="M114.333 240.667L114.667 241.333L114.333 240.667z"/>
<path style="fill:#444444; stroke:none;" d="M134 240L135 241L134 240z"/>
<path style="fill:#6f6f6f; stroke:none;" d="M166.333 240.667L166.667 241.333L166.333 240.667M169 240L170 241L169 240z"/>
<path style="fill:#222222; stroke:none;" d="M186 240L187 241L186 240z"/>
<path style="fill:#a9a9a9; stroke:none;" d="M65 241L68 243L65 241z"/>
<path style="fill:#6f6f6f; stroke:none;" d="M92.6667 241.333L93.3333 241.667L92.6667 241.333z"/>
<path style="fill:#222222; stroke:none;" d="M94 243L97 242L94 243z"/>
<path style="fill:#444444; stroke:none;" d="M97 241L98 242L97 241z"/>
<path style="fill:#a9a9a9; stroke:none;" d="M98 241L98 243L100 243L100 241L98 241z"/>
<path style="fill:#6f6f6f; stroke:none;" d="M107 241L108 242L107 241z"/>
<path style="fill:#222222; stroke:none;" d="M108.667 241.333L109.333 241.667L108.667 241.333z"/>
<path style="fill:#6f6f6f; stroke:none;" d="M110.333 241.667L110.667 242.333L110.333 241.667z"/>
<path style="fill:#fefefe; stroke:none;" d="M113 241L114 244L113 241z"/>
<path style="fill:#6f6f6f; stroke:none;" d="M134.333 241.667L134.667 242.333L134.333 241.667z"/>
<path style="fill:#a9a9a9; stroke:none;" d="M164 241L165 242L164 241z"/>
<path style="fill:#444444; stroke:none;" d="M165 241L166 242L165 241z"/>
<path style="fill:#6f6f6f; stroke:none;" d="M168 241L169 242L168 241z"/>
<path style="fill:#a9a9a9; stroke:none;" d="M170 241L171 242L170 241z"/>
<path style="fill:#6f6f6f; stroke:none;" d="M185 241L186 242L185 241z"/>
<path style="fill:#a9a9a9; stroke:none;" d="M186 241L187 242L186 241z"/>
<path style="fill:#6f6f6f; stroke:none;" d="M187 241L188 242L187 241M65 242L66 243L65 242z"/>
<path style="fill:#444444; stroke:none;" d="M93 242L94 243L93 242z"/>
<path style="fill:#a9a9a9; stroke:none;" d="M95 242L96 243L95 242z"/>
<path style="fill:#6f6f6f; stroke:none;" d="M100 242L101 243L100 242z"/>
<path style="fill:#222222; stroke:none;" d="M101 242L101 243L107 243L101 242z"/>
<path style="fill:#a9a9a9; stroke:none;" d="M107 242L106 245L107 245L108 245L107 242z"/>
<path style="fill:#444444; stroke:none;" d="M116 242L117 243L116 242z"/>
<path style="fill:#a9a9a9; stroke:none;" d="M117.333 242.667L117.667 243.333L117.333 242.667z"/>
<path style="fill:#444444; stroke:none;" d="M163 242L165 244L163 242z"/>
<path style="fill:#6f6f6f; stroke:none;" d="M164 242L165 243L164 242z"/>
<path style="fill:#222222; stroke:none;" d="M166 242L167 243L166 242z"/>
<path style="fill:#6f6f6f; stroke:none;" d="M169 242L170 243L169 242z"/>
<path style="fill:#444444; stroke:none;" d="M170 242L171 243L170 242z"/>
<path style="fill:#6f6f6f; stroke:none;" d="M184 242L185 243L184 242z"/>
<path style="fill:#222222; stroke:none;" d="M187.333 242.667L187.667 243.333L187.333 242.667z"/>
<path style="fill:#444444; stroke:none;" d="M65 243L66 244L65 243z"/>
<path style="fill:#a9a9a9; stroke:none;" d="M69 243L70 244L69 243z"/>
<path style="fill:#6f6f6f; stroke:none;" d="M70 243L70 244L73 244L70 243z"/>
<path style="fill:#a9a9a9; stroke:none;" d="M75 243L74 245L75 243z"/>
<path style="fill:#6f6f6f; stroke:none;" d="M76 243L77 244L76 243z"/>
<path style="fill:#a9a9a9; stroke:none;" d="M77 243L78 244L77 243z"/>
<path style="fill:#6f6f6f; stroke:none;" d="M93 243L93 246L94 246L93 243z"/>
<path style="fill:#fefefe; stroke:none;" d="M107 243L108 244L107 243z"/>
<path style="fill:#6f6f6f; stroke:none;" d="M108 243L109 244L108 243z"/>
<path style="fill:#444444; stroke:none;" d="M118 243L119 244L118 243z"/>
<path style="fill:#222222; stroke:none;" d="M119 243L120 244L119 243z"/>
<path style="fill:#6f6f6f; stroke:none;" d="M120 243L121 244L120 243z"/>
<path style="fill:#444444; stroke:none;" d="M134 243L135 244L134 243z"/>
<path style="fill:#a9a9a9; stroke:none;" d="M160.333 243.667L160.667 244.333L160.333 243.667z"/>
<path style="fill:#222222; stroke:none;" d="M161 243L162 244L161 243z"/>
<path style="fill:#6f6f6f; stroke:none;" d="M162 243L163 244L162 243z"/>
<path style="fill:#a9a9a9; stroke:none;" d="M165 243L166 244L165 243M182.667 243.333L183.333 243.667L182.667 243.333z"/>
<path style="fill:#6f6f6f; stroke:none;" d="M65 244L66 245L65 244z"/>
<path style="fill:#a9a9a9; stroke:none;" d="M78 244L79 245L78 244z"/>
<path style="fill:#6f6f6f; stroke:none;" d="M79 244L79 245L82 245L79 244z"/>
<path style="fill:#a9a9a9; stroke:none;" d="M82 244L83 245L82 244M120 244L121 245L120 244z"/>
<path style="fill:#222222; stroke:none;" d="M121 244L122 245L121 244z"/>
<path style="fill:#a9a9a9; stroke:none;" d="M122 244L123 245L122 244z"/>
<path style="fill:#222222; stroke:none;" d="M134 244L134 248L135 248L134 244z"/>
<path style="fill:#6f6f6f; stroke:none;" d="M148 244L149 245L148 244z"/>
<path style="fill:#222222; stroke:none;" d="M154 252L154 251C148.087 247.585 151.874 245.167 157 245C149.228 241.747 145.026 250.129 154 252z"/>
<path style="fill:#444444; stroke:none;" d="M157 244L158 245L157 244z"/>
<path style="fill:#6f6f6f; stroke:none;" d="M158.667 244.333L159.333 244.667L158.667 244.333z"/>
<path style="fill:#444444; stroke:none;" d="M162 244L163 245L162 244z"/>
<path style="fill:#a9a9a9; stroke:none;" d="M163 244L164 245L163 244z"/>
<path style="fill:#6f6f6f; stroke:none;" d="M181 244L182 245L181 244M187 244L186 247L187 247L187 244M66 245L67 246L66 245z"/>
<path style="fill:#a9a9a9; stroke:none;" d="M84 245L85 246L84 245z"/>
<path style="fill:#6f6f6f; stroke:none;" d="M85 245L85 246L88 246L85 245M113 245L115 247L113 245z"/>
<path style="fill:#444444; stroke:none;" d="M114 245L115 246L114 245z"/>
<path style="fill:#6f6f6f; stroke:none;" d="M122 245L123 246L122 245z"/>
<path style="fill:#222222; stroke:none;" d="M123 245L124 246L123 245z"/>
<path style="fill:#a9a9a9; stroke:none;" d="M124 245L125 246L124 245z"/>
<path style="fill:#6f6f6f; stroke:none;" d="M150 245L151 246L150 245z"/>
<path style="fill:#a9a9a9; stroke:none;" d="M151.667 245.333L152.333 245.667L151.667 245.333z"/>
<path style="fill:#6f6f6f; stroke:none;" d="M160.667 245.333L161.333 245.667L160.667 245.333z"/>
<path style="fill:#a9a9a9; stroke:none;" d="M180 245L181 246L180 245M187 245L188 246L187 245M67 246L68 247L67 246z"/>
<path style="fill:#222222; stroke:none;" d="M68 246L68 247L74 247L68 246z"/>
<path style="fill:#6f6f6f; stroke:none;" d="M74.6667 246.333L75.3333 246.667L74.6667 246.333z"/>
<path style="fill:#a9a9a9; stroke:none;" d="M76 246L76 247L80 248L80 247L76 246M89 246L90 247L89 246z"/>
<path style="fill:#6f6f6f; stroke:none;" d="M90 246L91 247L90 246z"/>
<path style="fill:#444444; stroke:none;" d="M94 246L95 247L94 246M113 246L114 247L113 246z"/>
<path style="fill:#6f6f6f; stroke:none;" d="M124 246L125 247L124 246z"/>
<path style="fill:#222222; stroke:none;" d="M125 246L126 247L125 246z"/>
<path style="fill:#a9a9a9; stroke:none;" d="M126.333 246.667L126.667 247.333L126.333 246.667M147 246L148 247L147 246M178.667 246.333L179.333 246.667L178.667 246.333z"/>
<path style="fill:#444444; stroke:none;" d="M185 246L186 247L185 246z"/>
<path style="fill:#6f6f6f; stroke:none;" d="M80 247L81 248L80 247z"/>
<path style="fill:#444444; stroke:none;" d="M81 247L82 248L81 247z"/>
<path style="fill:#222222; stroke:none;" d="M82.6667 247.333L83.3333 247.667L82.6667 247.333z"/>
<path style="fill:#444444; stroke:none;" d="M84 247L85 248L84 247z"/>
<path style="fill:#6f6f6f; stroke:none;" d="M85 247L87 249L85 247z"/>
<path style="fill:#a9a9a9; stroke:none;" d="M92 247L93 248L92 247z"/>
<path style="fill:#6f6f6f; stroke:none;" d="M94 247L96 249L96 247L94 247z"/>
<path style="fill:#444444; stroke:none;" d="M127 247L128 248L127 247z"/>
<path style="fill:#222222; stroke:none;" d="M128 247L129 248L128 247z"/>
<path style="fill:#444444; stroke:none;" d="M129 247L130 248L129 247z"/>
<path style="fill:#6f6f6f; stroke:none;" d="M147 247L148 248L147 247M177 247L178 248L177 247M183 247L184 248L183 247z"/>
<path style="fill:#444444; stroke:none;" d="M184 247L185 248L184 247z"/>
<path style="fill:#a9a9a9; stroke:none;" d="M85 248L86 249L85 248z"/>
<path style="fill:#222222; stroke:none;" d="M87.6667 248.333L88.3333 248.667L87.6667 248.333z"/>
<path style="fill:#6f6f6f; stroke:none;" d="M89 248L90 249L89 248z"/>
<path style="fill:#a9a9a9; stroke:none;" d="M90.3333 248.667L90.6667 249.333L90.3333 248.667z"/>
<path style="fill:#444444; stroke:none;" d="M94 248L95 249L94 248z"/>
<path style="fill:#222222; stroke:none;" d="M96 248L99 251L96 248z"/>
<path style="fill:#a9a9a9; stroke:none;" d="M97 248L97 249L101 250L101 249L97 248z"/>
<path style="fill:#6f6f6f; stroke:none;" d="M130 248L131 249L130 248z"/>
<path style="fill:#222222; stroke:none;" d="M131 248L132 249L131 248z"/>
<path style="fill:#a9a9a9; stroke:none;" d="M132.333 248.667L132.667 249.333L132.333 248.667z"/>
<path style="fill:#6f6f6f; stroke:none;" d="M134 248L133 250L134 248z"/>
<path style="fill:#a9a9a9; stroke:none;" d="M149.667 248.333L150.333 248.667L149.667 248.333z"/>
<path style="fill:#6f6f6f; stroke:none;" d="M175 248L176 249L175 248z"/>
<path style="fill:#a9a9a9; stroke:none;" d="M176 248L177 249L176 248M181.333 248.667L181.667 249.333L181.333 248.667z"/>
<path style="fill:#444444; stroke:none;" d="M182 248L183 249L182 248z"/>
<path style="fill:#a9a9a9; stroke:none;" d="M183 248L184 249L183 248z"/>
<path style="fill:#6f6f6f; stroke:none;" d="M91 249L91 250L94 250L91 249z"/>
<path style="fill:#a9a9a9; stroke:none;" d="M94 249L95 250L94 249M96 249L97 250L96 249z"/>
<path style="fill:#fefefe; stroke:none;" d="M98 249L99 250L98 249z"/>
<path style="fill:#222222; stroke:none;" d="M134 249L135 250L134 249z"/>
<path style="fill:#a9a9a9; stroke:none;" d="M152.333 249.667L152.667 250.333L152.333 249.667z"/>
<path style="fill:#6f6f6f; stroke:none;" d="M153.667 249.333L154.333 249.667L153.667 249.333z"/>
<path style="fill:#a9a9a9; stroke:none;" d="M173.667 249.333L174.333 249.667L173.667 249.333M178 249L179 250L178 249z"/>
<path style="fill:#222222; stroke:none;" d="M179 249L180 250L179 249z"/>
<path style="fill:#444444; stroke:none;" d="M180 249L181 250L180 249z"/>
<path style="fill:#a9a9a9; stroke:none;" d="M102 250L102 251L105 251L102 250M134 250L135 251L134 250M155 250L156 251L155 250z"/>
<path style="fill:#444444; stroke:none;" d="M156 250L157 251L156 250z"/>
<path style="fill:#6f6f6f; stroke:none;" d="M157 250L158 251L157 250z"/>
<path style="fill:#a9a9a9; stroke:none;" d="M158 250L159 251L158 250M170 250L171 251L170 250z"/>
<path style="fill:#6f6f6f; stroke:none;" d="M171 250L172 251L171 250z"/>
<path style="fill:#a9a9a9; stroke:none;" d="M172 250L173 251L172 250M176 250L177 251L176 250z"/>
<path style="fill:#222222; stroke:none;" d="M177 250L178 251L177 250z"/>
<path style="fill:#6f6f6f; stroke:none;" d="M178 250L179 251L178 250z"/>
<path style="fill:#222222; stroke:none;" d="M99 251L100 252L99 251z"/>
<path style="fill:#6f6f6f; stroke:none;" d="M100.333 251.667L100.667 252.333L100.333 251.667z"/>
<path style="fill:#a9a9a9; stroke:none;" d="M106 251L107 252L106 251z"/>
<path style="fill:#6f6f6f; stroke:none;" d="M107.667 251.333L108.333 251.667L107.667 251.333z"/>
<path style="fill:#a9a9a9; stroke:none;" d="M109 251L110 252L109 251M150 251L151 252L150 251z"/>
<path style="fill:#6f6f6f; stroke:none;" d="M154 251L153 253L154 251z"/>
<path style="fill:#a9a9a9; stroke:none;" d="M159 251L160 252L159 251z"/>
<path style="fill:#6f6f6f; stroke:none;" d="M160 251L161 252L160 251z"/>
<path style="fill:#444444; stroke:none;" d="M161 251L162 252L161 251z"/>
<path style="fill:#6f6f6f; stroke:none;" d="M162 251L162 252L167 252L162 251z"/>
<path style="fill:#444444; stroke:none;" d="M167.667 251.333L168.333 251.667L167.667 251.333z"/>
<path style="fill:#a9a9a9; stroke:none;" d="M169 251L170 252L169 251M173 251L174 252L173 251z"/>
<path style="fill:#444444; stroke:none;" d="M174 251L175 252L174 251z"/>
<path style="fill:#222222; stroke:none;" d="M175 251L176 252L175 251z"/>
<path style="fill:#6f6f6f; stroke:none;" d="M176 251L177 252L176 251z"/>
<path style="fill:#222222; stroke:none;" d="M101.667 252.333L102.333 252.667L101.667 252.333z"/>
<path style="fill:#6f6f6f; stroke:none;" d="M103 252L105 254L103 252z"/>
<path style="fill:#a9a9a9; stroke:none;" d="M104.667 252.333L105.333 252.667L104.667 252.333M111 254L115 253L111 254M134 252L135 253L134 252z"/>
<path style="fill:#444444; stroke:none;" d="M154 252L155 253L154 252z"/>
<path style="fill:#222222; stroke:none;" d="M155 252L156 253L155 252z"/>
<path style="fill:#6f6f6f; stroke:none;" d="M156.333 252.667L156.667 253.333L156.333 252.667z"/>
<path style="fill:#a9a9a9; stroke:none;" d="M157 252L158 253L157 252z"/>
<path style="fill:#6f6f6f; stroke:none;" d="M171 252L170 254L171 252z"/>
<path style="fill:#222222; stroke:none;" d="M172 252L173 253L172 252z"/>
<path style="fill:#6f6f6f; stroke:none;" d="M173 252L174 253L173 252z"/>
<path style="fill:#a9a9a9; stroke:none;" d="M103 253L104 254L103 253z"/>
<path style="fill:#444444; stroke:none;" d="M105 253L106 254L105 253z"/>
<path style="fill:#222222; stroke:none;" d="M106 253L106 254L109 254L106 253z"/>
<path style="fill:#444444; stroke:none;" d="M109 253L110 254L109 253z"/>
<path style="fill:#6f6f6f; stroke:none;" d="M110 253L111 254L110 253z"/>
<path style="fill:#a9a9a9; stroke:none;" d="M119 256L119 255L117 255L117 254L120 254C116.991 252.31 114.911 255.14 119 256z"/>
<path style="fill:#6f6f6f; stroke:none;" d="M120.667 253.333L121.333 253.667L120.667 253.333z"/>
<path style="fill:#a9a9a9; stroke:none;" d="M122 253L122 254L127 254L122 253z"/>
<path style="fill:#6f6f6f; stroke:none;" d="M127 253L128 254L127 253z"/>
<path style="fill:#444444; stroke:none;" d="M128 253L129 254L128 253z"/>
<path style="fill:#6f6f6f; stroke:none;" d="M129.667 253.333L130.333 253.667L129.667 253.333z"/>
<path style="fill:#a9a9a9; stroke:none;" d="M131.667 253.333L132.333 253.667L131.667 253.333M155 253L156 254L155 253z"/>
<path style="fill:#222222; stroke:none;" d="M157 253L157 254L161 254L157 253z"/>
<path style="fill:#6f6f6f; stroke:none;" d="M161 253L163 255L161 253z"/>
<path style="fill:#a9a9a9; stroke:none;" d="M162 253L163 254L162 253M166 253L168 255L166 253z"/>
<path style="fill:#6f6f6f; stroke:none;" d="M167 253L168 254L167 253z"/>
<path style="fill:#222222; stroke:none;" d="M168.667 253.333L169.333 253.667L168.667 253.333z"/>
<path style="fill:#a9a9a9; stroke:none;" d="M171 253L172 254L171 253M112 254L113 255L112 254z"/>
<path style="fill:#6f6f6f; stroke:none;" d="M113 254L113 255L116 255L113 254z"/>
<path style="fill:#a9a9a9; stroke:none;" d="M133.667 254.333L134.333 254.667L133.667 254.333M161 254L162 255L161 254z"/>
<path style="fill:#444444; stroke:none;" d="M163 254L163 255L166 255L163 254z"/>
<path style="fill:#6f6f6f; stroke:none;" d="M166 254L167 255L166 254M119 255L120 256L119 255z"/>
<path style="fill:#a9a9a9; stroke:none;" d="M120.667 255.333L121.333 255.667L120.667 255.333M131 255L132 256L131 255z"/>
<path style="fill:#6f6f6f; stroke:none;" d="M132 255L133 256L132 255z"/>
<path style="fill:#a9a9a9; stroke:none;" d="M125.667 256.333L126.333 256.667L125.667 256.333z"/>
<path style="fill:#6f6f6f; stroke:none;" d="M127.667 256.333L128.333 256.667L127.667 256.333z"/>
<path style="fill:#a9a9a9; stroke:none;" d="M129 256L130 257L129 256z"/>
</svg>
