<?xml version="1.0" standalone="yes"?>
<svg xmlns="http://www.w3.org/2000/svg" width="1139" height="1637">
<path style="fill:#010101; stroke:none;" d="M0 0L0 1637L1139 1637L1139 0L0 0z"/>
<path style="fill:#171717; stroke:none;" d="M616 90L616 91C637.814 91.937 653.821 99.0403 673 108.63C679.605 111.932 688.505 113.018 692.327 120.015C700.567 135.1 696.577 155.407 700 172C692.48 170.33 690.897 181.472 683.999 178.933C669.687 173.665 667.19 159.686 662.999 147C661.12 141.312 659.491 133.795 653.906 130.572C646.595 126.353 637.822 128.903 630 128.996C620.544 129.109 613.109 132.261 604 133.671C598.044 134.592 591.942 131.731 586 133.514C577.56 136.047 562.81 147.08 556 153C554.248 146.766 549.995 137.333 550.573 131C551.435 121.54 559.439 117.619 565.985 112.331C570.616 108.591 573.779 103.398 579 100.363C592.389 92.5808 606.759 95.6439 621 93L621 92C605.849 91.6875 590.864 89.975 577 98.2246C572.202 101.08 569.206 105.833 564.961 109.331C557.367 115.588 549.75 119.231 548.305 130C546.064 146.697 558.954 163.952 563.482 179C566.13 187.798 563.326 196.128 563.043 205C562.797 212.716 565.394 220.337 566 228C556.114 222.257 543.568 214.145 532.961 210.532C527.664 208.728 522.013 210.874 517 209.092C509.199 206.319 505.005 201.394 496 201.04C487.5 200.706 478.841 204.465 471 207.425C440.167 219.065 419.54 242.749 412.424 275C405.922 304.474 421.203 332.662 414.471 362C410.958 377.308 401.263 391.615 397.155 407C388.71 438.631 388.761 473.615 391.83 506C392.681 514.975 386.523 526.616 389.743 534.995C392.288 541.619 401.599 544.064 406.586 538.772C408.689 536.539 409.89 531.74 413.443 531.393C422.027 530.553 433.386 543.198 438 549C427.594 549.338 427.565 557.635 426.424 566C424.314 581.451 425.986 597.763 437 610L437 611C431.907 616.039 430.199 623.514 427.548 630C421.615 644.516 417.632 655.651 414.485 671C412.282 681.748 406.352 691.341 404.311 702C402.529 711.307 404.495 719.803 403.91 729C402.681 748.297 400.098 766.066 402.79 785C403.822 792.259 400.356 799.806 402.653 806.995C405.204 814.979 416.143 813.451 419.258 821.043C423.501 831.383 423.664 846.846 425.271 858C428.934 883.419 431 907.259 431 933C431 944.442 430.166 962.705 424.427 972.852C422.139 976.898 416.963 976 413 976C403.167 976.001 393.765 974.983 384 974.075C347.412 970.673 308.826 969.951 273 961.888C264.349 959.941 245.981 967.527 241 959L240 959L237 963L237 964C255.432 974.352 259.174 1008.77 260 1028L215 1017.66L184 1012L184 1011C202.52 995.046 232.136 982.462 239 956L236 957C235.992 945.558 232.043 934.966 229.154 924C228.213 920.425 228.222 914.547 224.697 912.434C216.713 907.648 196.65 911.92 188 913.88C169.944 917.973 154.606 928.525 137 933.974C119.73 939.32 99.4738 940.274 83 947.529C71.5396 952.576 42.2544 967.962 49.2793 984C58.4588 1004.96 91.4846 1002.76 111 1003C119.188 1003.1 132.701 1003.31 138 1010C133.616 1012.05 110.985 1028.09 126.108 1031.48C133.531 1033.14 143.201 1027.16 151 1027L148 1057C158.028 1053.43 163.798 1032.8 164 1023C171.896 1027.56 183.944 1038.98 186.56 1023C186.942 1020.67 186.98 1018.36 187 1016L259 1031C260.418 1048.97 262.806 1067.11 264.711 1085C265.598 1093.33 263.326 1100.21 271 1106L268.09 1091L260.565 1003L249 967L248 967L248 970L247 970L246 966C252.723 965.996 259.362 963.802 266 964.104C274.426 964.488 282.563 968.014 291 968.83C314.598 971.114 338.352 972.91 362 975.17C381.369 977.021 403.976 983.031 423 977L423 979L425 979C431.476 967.442 431.937 950.945 433.17 938C437.08 896.942 428.457 857.142 421 817C441.972 814.162 463.401 797.882 475.279 781C480.518 773.554 485.175 765.683 490.053 758C491.67 755.453 493.859 750.571 497.184 749.994C503.675 748.867 516.038 757.823 522 760.424C542.347 769.303 562.599 777.739 583 786.094C590.437 789.14 597.554 796.906 606 796C603.997 804.415 606.997 812.494 607 821C607.006 836.208 605.27 851.87 603.83 867C601.075 895.949 594.756 922.699 588.425 951C579.788 989.609 570.907 1023.95 550.895 1058.29C542.165 1073.27 539.726 1091.73 525 1103.33C503.37 1120.37 476.119 1106.79 452 1104.17C408.016 1099.39 365.084 1104 321 1104C304.415 1104 288.441 1106.19 272 1103C276.756 1109.94 293.408 1108 301 1108C328.402 1108 355.693 1106 383 1106C368.589 1138.51 359.349 1174.36 351.575 1209C349.619 1217.71 338.88 1236.35 347.434 1244.3C353.049 1249.52 363.746 1251.03 371 1252.25C386.442 1254.84 401.649 1257.68 417 1260.63C424.823 1262.13 432.179 1261.81 438 1268L439 1268L445 1265L442 1264C446.525 1248.29 453.282 1232.62 458.485 1217C466.079 1194.19 471.536 1171.31 480.547 1149C484.621 1138.91 484.694 1126.54 490.393 1117.15C493.714 1111.68 503.595 1114.48 509 1113.7C518.75 1112.29 528.625 1105.97 534.363 1098C547.125 1080.27 559.321 1058.38 567.39 1038C569.667 1032.25 569.598 1025.82 571.61 1020C573.457 1014.65 577.455 1010.41 579.25 1005C591.552 967.899 598.81 926.616 604.286 888C608.406 858.94 613.82 828.66 606 800L607 800L607 802L608 802C608.002 785.515 614.096 769.688 618.573 754C624.649 732.706 628.997 711.172 629 689L633 689C633 722.317 628.745 756.079 623.561 789C620.436 808.845 615.374 827.829 614.09 848C612.352 875.311 623.82 902.116 621.911 930C620.002 957.874 609.672 984.099 610.004 1012C610.18 1026.86 615.394 1042.52 618.576 1057C625 1086.25 631.985 1115.12 634.83 1145C640.219 1201.59 638.656 1263.9 629.703 1320C628.044 1330.39 621.434 1339.36 620 1350C597.53 1350 576.042 1360.53 554 1358.91C539.639 1357.86 516.939 1347.69 504 1357C499.814 1348.51 490.105 1350.83 483 1346.53C471.015 1339.27 464.185 1323.94 452 1318C453.637 1310.45 451.993 1289.1 441 1292L435 1270L434 1270L437.108 1292.54L437 1304L444 1297C446.917 1304.83 446.707 1314.86 450.934 1321.99C454.252 1327.58 460.43 1331.11 463.446 1337.04C465.685 1341.44 465.767 1344.78 462 1348L461 1345L456 1348C453.834 1340.08 450.208 1327.7 444.93 1321.34C441.897 1317.68 439.537 1322.82 436.235 1321.66C427.832 1318.7 432.524 1307.6 435 1303L429 1302L426 1308C418.798 1309.06 412.222 1313.02 405 1313.81C399.282 1314.44 393.697 1312.11 388 1312.26C383.613 1312.38 375.131 1314.52 371.777 1310.4C369.186 1307.22 372.729 1298.64 373.386 1295C375.821 1281.49 377 1267.7 377 1254L376 1254L368 1310C349.667 1310.59 352.404 1346.05 350.247 1359C349.279 1364.81 347.555 1372.63 351.728 1377.7C360.189 1387.97 376.691 1384.09 388 1385.17C418.74 1388.1 448.856 1390.22 479 1397.63C487.337 1399.67 510.072 1405.19 512 1393C522.866 1400.81 532.549 1412.36 545 1417.64C561.039 1424.44 580.078 1422.45 597 1424.17C609.42 1425.43 621.495 1429.97 634 1430C630.346 1424.82 617.089 1424.27 611 1423.25C591.285 1419.93 568.939 1419.26 550 1413.35C538.731 1409.84 532.182 1399.2 522 1394L522 1393C563.455 1406.51 606 1419.91 650 1422.91C657.447 1423.42 664.614 1421.08 672 1421.08C692.537 1421.08 711.628 1426.21 731 1416C728.516 1427.38 716.166 1431.13 706 1433.84C681.001 1440.51 653.438 1431 628 1431L628 1432C656.591 1432.02 685.813 1443.53 714 1434.33C723.915 1431.09 744.166 1414.67 729 1404L731 1415C722.381 1415.4 714.099 1420.65 705 1420.87C655.857 1422.09 606.678 1417.39 559 1403.71C543.177 1399.17 507.938 1393.08 507.113 1372C506.81 1364.26 514.991 1359.39 522 1359.13C536.763 1358.59 550.916 1364.94 566 1363.91C579.75 1362.97 592.179 1355.6 606 1355C603.421 1363.07 602.027 1369.84 605 1378L606 1378L606 1354C623.468 1353.65 620.321 1368.23 616 1381C612.644 1374.31 612.096 1367.32 613 1360C600.576 1367.26 616.583 1398.7 622.1 1376C622.66 1373.7 622.992 1371.37 622.946 1369C622.874 1365.26 621.931 1361.6 621 1358C630.054 1364.9 640.18 1365.79 650 1370.66C676.62 1383.85 702.046 1394.49 731 1402L729 1397C735.159 1380.62 732.959 1361.36 734 1344L733 1344L730 1369L729 1369C729 1307.97 730.996 1247.02 731 1186C731.001 1164.6 736.064 1143.43 733.282 1122C730.498 1100.56 728.105 1077.61 728.001 1056C727.974 1050.45 725.091 1038.2 730 1035L740.931 1017L753 969L754 969C761.817 990.514 773.868 1010.47 781.452 1032C783.823 1038.73 783.193 1046.09 784.669 1053C787.314 1065.38 793.712 1079.53 800.749 1090C816.821 1113.91 845.857 1122.29 858.485 1148C863.168 1157.53 862.741 1169.83 866.436 1180C881.386 1221.15 893.761 1263.36 907.33 1305C910.108 1313.53 917.772 1329.31 913.685 1338C902.317 1362.18 866.089 1368.26 843 1369.04C835.709 1369.28 824.171 1372.68 818 1368L817 1368L816 1368L811 1368L810 1368C807.877 1370.06 806.141 1371.49 804 1369L803 1369C802.332 1375.66 798.143 1382.15 799.544 1389C803.722 1409.42 821.249 1411.87 838 1417.68C854.671 1423.47 873.97 1428.96 892 1428.54C918.982 1427.92 948.102 1416.5 972 1404.76C988.823 1396.49 1017.87 1390.79 1020.71 1369C1022.47 1355.48 1012.5 1347.48 1011.89 1335C1009.06 1277.25 990.419 1217.66 967.138 1165C958.462 1145.37 946.843 1127.15 937.27 1108C923.932 1081.32 912.932 1051.25 903.515 1023C894.471 995.867 897.302 970.908 897.985 943C898.722 912.946 898.244 879.133 906.428 850C914.731 820.446 930.553 791.576 933.826 761C936.192 738.909 923.469 717.025 914.258 698C908.779 686.682 906.313 674.602 901.796 663C896.638 649.749 889.325 636.598 885.427 623C870.975 572.581 861.643 520.385 851.003 469C846.639 447.922 844.22 425.592 837.961 405C832.344 386.522 826.309 366.52 816.189 350C808.916 338.127 794.604 324.278 790.813 311.005C789.283 305.646 797.865 304.086 799.355 298.995C804.065 282.905 808.356 263.452 800.176 248C794.658 237.576 787.055 235.622 777 232.06C757.336 225.095 736.407 225.419 716 228L716 229C733.909 236.027 744.872 258.361 754 274C738.744 258.907 727.582 242.28 709 230L709 229L711 227L708 228L700 216C714.726 207.811 704.511 174.514 702.096 162C699.148 146.732 703.14 131.125 694.471 117.043C690.201 110.109 680.828 109.473 674 106.215C655.153 97.2231 638.16 84.7238 616 90z"/>
<path style="fill:#141414; stroke:none;" d="M656 99L657 100L656 99M568 106L569 107L568 106z"/>
<path style="fill:#272727; stroke:none;" d="M669 106L670 107L669 106z"/>
<path style="fill:#141414; stroke:none;" d="M677 110L678 111L677 110z"/>
<path style="fill:#1f1f1f; stroke:none;" d="M682 112L683 113L682 112z"/>
<path style="fill:#272727; stroke:none;" d="M692 119L693 120L692 119z"/>
<path style="fill:#010101; stroke:none;" d="M614 291C615.565 288.653 619.06 284.762 618 289C638.225 276.824 656.753 265.225 675 250.081C683.365 243.138 694.893 230.207 706 229L699 216L691 220C691.332 212.633 699.402 215.15 702.347 209.772C708.298 198.905 703.689 183.784 698 174L696 174C689.25 188.437 678.495 183.585 669.225 172.96C660.732 163.226 663.82 139.891 651.895 133.573C638.548 126.5 618.342 134.096 605 136.532C599.625 137.513 594.265 135.108 589 137.032C584.109 138.82 580.224 143.322 576 146.279C571.598 149.36 561.649 151.927 559.607 157.105C556.785 164.261 565.227 172.214 566.532 179C568.25 187.942 566.018 197.08 566.259 206C566.596 218.446 570.297 230.305 576.427 241C580.019 247.266 583.519 254.495 588.329 259.911C593.884 266.166 601.38 270.318 606.61 277C609.954 281.274 610.816 286.745 614 291z"/>
<path style="fill:#272727; stroke:none;" d="M550 134L551 135L550 134z"/>
<path style="fill:#1f1f1f; stroke:none;" d="M609 135L610 136L609 135M553 142L554 143L553 142z"/>
<path style="fill:#141414; stroke:none;" d="M574 147L575 148L574 147z"/>
<path style="fill:#272727; stroke:none;" d="M571 149L572 150L571 149z"/>
<path style="fill:#141414; stroke:none;" d="M553 154L554 155L553 154M665 155L666 156L665 155M671 170L672 171L671 170z"/>
<path style="fill:#010101; stroke:none;" d="M700.333 172.667L700.667 173.333L700.333 172.667M701 175L702 176L701 175z"/>
<path style="fill:#1f1f1f; stroke:none;" d="M679 176L680 177L679 176z"/>
<path style="fill:#010101; stroke:none;" d="M703 179L704 180L703 179z"/>
<path style="fill:#141414; stroke:none;" d="M564 183L565 184L564 183z"/>
<path style="fill:#010101; stroke:none;" d="M505 206C495.185 200.743 486.371 205.44 477 209.2C455.499 217.827 433.593 229.608 424.6 252C419.659 264.303 414.629 276.527 414.039 290C413.472 302.965 418.294 315.282 419.816 328C421.004 337.93 419.648 349.982 418.91 360C417.711 376.262 404.617 392.91 400.478 409C393.314 436.855 395 465.561 395 494C395 504.588 395.223 514.489 393.59 525C392.968 529.003 392.41 533.551 396.148 536.257C405.362 542.926 406.519 524.826 416.001 527.971C422.08 529.987 429.995 534.404 434.867 538.553C436.855 540.246 438.894 545.388 442.068 544.539C446.3 543.406 449.456 536.388 451.655 533C460.059 520.054 466.834 502.175 469.576 487C472.601 470.256 464.079 454.899 459.884 439C456.118 424.726 456.752 409.376 460.239 395C464.453 377.626 471.662 359.813 481.671 345C492.933 328.334 508.599 311.535 510.892 290C511.604 283.312 510.935 276.293 508.56 270C505.789 262.658 498.843 261.266 495.086 254.985C491.072 248.274 493.072 242.155 492.621 235C491.716 220.641 484.297 206.427 505 206M503 318C509.48 320.89 519.542 327.307 526.682 322.682C530.922 319.936 528.496 314.636 535.005 314.059C546.815 313.011 558.117 314.628 569 308.56C579.814 302.532 601.216 296.45 603.562 282C605.018 273.035 591.249 266.63 586.185 260.985C578.533 252.456 575.415 239.671 567.363 231.637C559.653 223.946 544.405 220.355 535 214.723C529.582 211.478 524.715 213.576 519 212.837C512.674 212.019 499.79 203.664 494.028 212.318C492.324 214.877 492.987 219.089 493.001 222C493.043 230.787 492.694 246.29 497.417 253.812C501.68 260.6 508.56 262.613 511.561 271C517.735 288.253 509.52 302.339 503 318z"/>
<path style="fill:#141414; stroke:none;" d="M533 213L534 214L533 213M449 223L450 224L449 223M561 225L562 226L561 225M758 227L759 228L758 227z"/>
<path style="fill:#010101; stroke:none;" d="M723 229C727.845 235.583 735.562 239.342 740.363 246.001C754.634 265.796 767.315 287.797 787 303L795 301C798.181 288.705 802.923 271.599 799.363 259C791.75 232.061 746.376 229 723 229M459 528C479.545 523.108 502.119 530.096 523 526.065C540.133 522.758 554.688 511.198 571 505.065C576.981 502.816 587.831 502.242 592.297 497.487C597.857 491.567 594.235 479.416 597.995 472C607.497 453.261 624.909 439.433 630 418L629 418C618.208 438.272 602.492 456.011 587.465 473.089C573.086 489.431 563.058 502.506 543 512C547.468 506.307 554.776 504.959 559.829 499.895C572.277 487.423 583.455 472.798 594.331 459C615.844 431.708 632.599 400.735 653.988 373.576C665.609 358.82 679.696 347.124 693 334.004C707.293 319.91 725.51 309.889 739.075 294.999C743.197 290.475 751.789 282.765 750.928 276C749.155 262.063 728.068 247.841 718 239.536C713.551 235.866 709.514 229.407 703 231.582C697.154 233.534 692.711 238.611 688 242.335C675.812 251.97 664.661 262.574 653 272.816C644.098 280.634 632.33 283.626 623 290.557C604.214 304.513 586.431 324.539 565 334.51C541.103 345.629 506.6 321.163 487.518 344.043C470.422 364.541 458.825 401.325 462.289 428C464.465 444.754 473.427 461.066 473.871 478C474.333 495.594 463.484 511.573 459 528z"/>
<path style="fill:#1f1f1f; stroke:none;" d="M751 231L752 232L751 231z"/>
<path style="fill:#141414; stroke:none;" d="M690 237L691 238L690 237M571 238L572 239L571 238M685 241L686 242L685 241M424 252L425 253L424 252M796 252L797 253L796 252M732 253L733 254L732 253z"/>
<path style="fill:#1f1f1f; stroke:none;" d="M802 253L803 254L802 253M745 254L746 255L745 254z"/>
<path style="fill:#141414; stroke:none;" d="M503 258L504 259L503 258M415 264L416 265L415 264z"/>
<path style="fill:#272727; stroke:none;" d="M799 277L800 278L799 277z"/>
<path style="fill:#010101; stroke:none;" d="M756 280C749.122 290.068 740.618 300.151 730.999 307.711C724.294 312.98 716.325 316.322 710.018 322.174C706.139 325.773 704.5 330.75 700.786 334.385C679.569 355.154 659.481 373.959 643.003 399C634.308 412.214 630.332 428.09 622.688 442C616.693 452.911 607.434 462.05 601.821 473C597.37 481.684 601.948 494.872 593.891 501.57C587.626 506.779 576.534 507.727 569 510.612C553.367 516.598 539.372 526.543 523 530.321C515.066 532.152 497.553 528.581 491.564 533.858C487.359 537.563 486.619 549.671 485.87 555C482.51 578.904 487.861 601.41 517 596C510.438 583.157 509.432 562.303 511.289 548C511.946 542.947 512.604 536.901 516 533C514.252 554.962 513.084 574.316 519 596C526.899 596.344 533.377 600.401 541 601.674C552.58 603.608 570.4 602.903 582 601.241C606.362 597.751 628.026 581.061 652 576.461C672.883 572.454 700.488 577.011 718 561.812C726.755 554.214 729.268 545.014 734.109 535C739.699 523.435 747.496 513.056 753.989 502C758.382 494.52 762.179 485.557 769 480C758.494 497.389 747.745 514.992 738.32 533C732.558 544.009 730.456 554.995 720.985 563.907C704.406 579.509 675.869 577.654 655 580.184C645.439 581.344 636.689 586.857 628 590.573C615.78 595.798 601.775 600.911 589 604.573C568.001 610.592 544.628 606.945 524 602.67C511.763 600.134 498.189 607.866 490 594L476.742 593.068L465.741 612.922L442 616L441 616L438 613C431.959 625.917 424.669 641.323 420.921 655C418.302 664.556 418.159 674.359 415.512 684C413.601 690.959 405.454 702.284 408.862 709.56C411.882 716.01 421.746 718.165 428 719.575C443.477 723.063 457.393 730.516 473 733.804C491.415 737.683 509.09 749.232 526 757.219C552.64 769.802 579.939 780.733 607 792C607.824 772.796 616.381 753.791 620.199 735C629.434 689.553 638 641.402 638 595L639 595C643.253 617.907 636.669 643.942 635.089 667C633.839 685.265 638.47 703.923 636.829 722C634.843 743.892 632.175 767.401 628.385 789C625.101 807.716 619.876 825.884 619.039 845C618.456 858.316 621.33 872.784 623 886L624 886C624 877.251 623.326 867.108 629 860C628.337 892.14 625.283 926.178 620.573 958C617.718 977.286 611.17 994.144 612.039 1014C613.287 1042.49 625.531 1071.11 630.739 1099C637.929 1137.51 638 1174.96 638 1214C638 1248.01 636.873 1281.25 632.715 1315C631.529 1324.63 628.024 1332.84 625.001 1342C623.967 1345.13 621.214 1350.49 622.404 1353.79C625.533 1362.47 642.856 1362.92 650 1365.56C675.483 1374.99 699.936 1393.71 728 1396L726 1346L728 1347C728 1279.97 729.821 1212.77 729.821 1146C729.821 1115.67 725.366 1085.29 724.039 1055C723.719 1047.68 722.475 1037.7 725.839 1031C728.515 1025.68 733.969 1023.35 737.185 1018.56C742.114 1011.22 747.339 991.507 745 983C748.44 979.776 746.993 972.332 746.424 968C744.861 956.096 745.206 947.214 739.741 936C734.206 924.642 729.123 911.703 722.532 901C718.474 894.412 712.689 889.069 709.326 882C702.523 867.695 700.365 851.968 692.688 838C687.819 829.14 679.987 822.627 675 814C700.298 831.82 700.501 857.376 713.9 882C720.343 893.839 729.63 904.032 736.099 916C743.268 929.265 746.729 945.127 752.862 959C763.25 982.5 776.208 1005.14 785.743 1029C788.545 1036.01 788.004 1043.67 789.464 1051C791.008 1058.75 794.761 1066.75 797.873 1074C804.445 1089.3 815.584 1102.64 829.004 1112.51C838.56 1119.54 849.044 1122.59 855.921 1133C865.127 1146.93 867.061 1161.39 872.029 1177C881.533 1206.87 889.77 1236.96 898.721 1267C903.077 1281.62 907.384 1296.48 912.051 1311C914.429 1318.4 917.933 1323.98 918 1332C946.978 1334.31 979.265 1346.19 1008 1337C1000.41 1276.97 986.78 1217.19 960.514 1162C951.757 1143.6 940.468 1126.4 931.781 1108C923.513 1090.49 917.651 1071.91 910.396 1054C904.324 1039.01 896.047 1024.18 893.326 1008C888.11 976.991 892.881 944.969 895.83 914C898.38 887.223 900.64 861.337 906.884 835C909.156 825.418 911.006 815.236 914.439 806C917.748 797.098 922.702 789.635 924 780C903.904 789.942 885.763 790.098 864 793.13C850.247 795.047 836.788 795.144 823 796.089C815.699 796.59 808.325 799.052 801 798.871C758.646 797.823 716.844 779.621 681 758.876C663.273 748.616 641.791 747.996 633 769C630.298 745.969 664.945 747.734 678 753.669C685.081 756.888 691.018 762.185 698 765.627C716.396 774.694 738.118 781.679 758 786.625C793.369 795.424 831.31 792.53 867 786.754C884.364 783.944 911.108 786.777 924.297 772.366C933.033 762.821 926.952 748.52 925.084 738C922.081 721.086 913.405 708.709 907.424 693C900.502 674.818 897.1 656.176 887.424 639C874.185 615.499 873.111 584.979 867.999 559C861.621 526.583 853.883 494.412 847.4 462C839.313 421.576 832.002 381.432 809.681 346C798.701 328.569 786.446 313.743 773.326 298C768.272 291.936 764.029 282.354 756 280M606 283C601.777 293.173 585.976 299.995 589 312L613 296L613 295L606 283z"/>
<path style="fill:#272727; stroke:none;" d="M594 286L595 287L594 286z"/>
<path style="fill:#141414; stroke:none;" d="M616 287L617 288L616 287z"/>
<path style="fill:#1f1f1f; stroke:none;" d="M601 291L602 292L601 291z"/>
<path style="fill:#010101; stroke:none;" d="M775 295L776 296L775 295z"/>
<path style="fill:#141414; stroke:none;" d="M736 297L737 298L736 297z"/>
<path style="fill:#272727; stroke:none;" d="M583 301L584 302L583 301z"/>
<path style="fill:#010101; stroke:none;" d="M531 317C530.086 333.649 511.335 324.65 502 322L498 333L532 332.089L561 332.226L585 316L585 305L564 314.971L531 317z"/>
<path style="fill:#141414; stroke:none;" d="M726 306L727 307L726 306M786 312L787 313L786 312M716 313L717 314L716 313z"/>
<path style="fill:#272727; stroke:none;" d="M583 316L584 317L583 316z"/>
<path style="fill:#1f1f1f; stroke:none;" d="M713 319L714 320L713 319z"/>
<path style="fill:#141414; stroke:none;" d="M703 326L704 327L703 326z"/>
<path style="fill:#1f1f1f; stroke:none;" d="M520 327L521 328L520 327z"/>
<path style="fill:#141414; stroke:none;" d="M698 328L699 329L698 328M535 332L536 333L535 332z"/>
<path style="fill:#1f1f1f; stroke:none;" d="M702 333L703 334L702 333z"/>
<path style="fill:#272727; stroke:none;" d="M495 337L496 338L495 337z"/>
<path style="fill:#141414; stroke:none;" d="M479 356L480 357L479 356z"/>
<path style="fill:#1f1f1f; stroke:none;" d="M473 368L474 369L473 368z"/>
<path style="fill:#141414; stroke:none;" d="M825 368L826 369L825 368z"/>
<path style="fill:#1f1f1f; stroke:none;" d="M414 373L415 374L414 373z"/>
<path style="fill:#141414; stroke:none;" d="M825 377L826 378L825 377M836 408L837 409L836 408M837 412L838 413L837 412z"/>
<path style="fill:#1f1f1f; stroke:none;" d="M605 443L606 444L605 443z"/>
<path style="fill:#141414; stroke:none;" d="M394.333 454.667L394.667 455.333L394.333 454.667M594 458L595 459L594 458z"/>
<path style="fill:#1f1f1f; stroke:none;" d="M583 470L584 471L583 470M595 478L596 479L595 478z"/>
<path style="fill:#171717; stroke:none;" d="M768 483L769 484L768 483z"/>
<path style="fill:#141414; stroke:none;" d="M566 491L567 492L566 491M562 496L563 497L562 496M754 505L755 506L754 505M750 507L751 508L750 507M546 510L547 511L546 510M391 515L392 516L391 515M490 527L491 528L490 527z"/>
<path style="fill:#272727; stroke:none;" d="M423 531L424 532L423 531z"/>
<path style="fill:#141414; stroke:none;" d="M419 533L420 534L419 533z"/>
<path style="fill:#010101; stroke:none;" d="M439 609C445.912 609.511 462.952 612.2 468.57 607.397C477.906 599.415 465.28 583.527 484 587C480.052 567.864 484.158 552.616 488 534C481.987 536.219 474.831 531.504 468 533.97C460.53 536.667 455.935 543.807 450 548.671C445.067 552.713 437.828 551.009 433.652 554.742C430.232 557.8 430.199 563.812 429.579 568C427.101 584.734 431.915 594.104 439 609z"/>
<path style="fill:#1f1f1f; stroke:none;" d="M862 535L863 536L862 535z"/>
<path style="fill:#141414; stroke:none;" d="M429 539L430 540L429 539z"/>
<path style="fill:#010101; stroke:none;" d="M451 540L448 545L451 540z"/>
<path style="fill:#141414; stroke:none;" d="M734 542L735 543L734 542M483 550L484 551L483 550M714 564L715 565L714 564M666 579L667 580L666 579z"/>
<path style="fill:#272727; stroke:none;" d="M649 581L650 582L649 581z"/>
<path style="fill:#141414; stroke:none;" d="M634 582L635 583L634 582z"/>
<path style="fill:#272727; stroke:none;" d="M646 582L647 583L646 582z"/>
<path style="fill:#141414; stroke:none;" d="M632 583L633 584L632 583M641 584L642 585L641 584M480 592L481 593L480 592M620 593L621 594L620 593z"/>
<path style="fill:#272727; stroke:none;" d="M531 598L532 599L531 598z"/>
<path style="fill:#141414; stroke:none;" d="M432 601L433 602L432 601z"/>
<path style="fill:#1f1f1f; stroke:none;" d="M581 601L582 602L581 601z"/>
<path style="fill:#141414; stroke:none;" d="M523 602L524 603L523 602M510 603L511 604L510 603z"/>
<path style="fill:#272727; stroke:none;" d="M589 604L590 605L589 604z"/>
<path style="fill:#141414; stroke:none;" d="M577 606L578 607L577 606z"/>
<path style="fill:#272727; stroke:none;" d="M887 639L888 640L887 639z"/>
<path style="fill:#141414; stroke:none;" d="M901 662L902 663L901 662M901 674L902 675L901 674M629 689L630 690L629 689z"/>
<path style="fill:#1f1f1f; stroke:none;" d="M626 698L627 699L626 698z"/>
<path style="fill:#010101; stroke:none;" d="M407 712L405.79 784L406.603 807.701L416 814L417 814C425.793 809.234 436.127 807.837 445 802.547C465.658 790.232 483.306 768.497 494 747C465.088 737.155 432.377 729.335 407 712z"/>
<path style="fill:#141414; stroke:none;" d="M922 713L923 714L922 713M921 722L922 723L921 722M407 734L408 735L407 734M473 739L474 740L473 739z"/>
<path style="fill:#1f1f1f; stroke:none;" d="M493 741L494 742L493 741z"/>
<path style="fill:#141414; stroke:none;" d="M633 743L634 744L633 743z"/>
<path style="fill:#272727; stroke:none;" d="M498 749L499 750L498 749z"/>
<path style="fill:#141414; stroke:none;" d="M489 758L490 759L489 758M626 759L627 760L626 759z"/>
<path style="fill:#1f1f1f; stroke:none;" d="M522 760L523 761L522 760M538 768L539 769L538 768z"/>
<path style="fill:#141414; stroke:none;" d="M716 772L717 773L716 772M403 773L404 774L403 773M708 774L709 775L708 774M629 777L630 778L629 777M729 777L730 778L729 777z"/>
<path style="fill:#1f1f1f; stroke:none;" d="M732 778L733 779L732 778M907 780L908 781L907 780z"/>
<path style="fill:#141414; stroke:none;" d="M918 783L919 784L918 783M891 784L892 785L891 784z"/>
<path style="fill:#1f1f1f; stroke:none;" d="M586 787L587 788L586 787z"/>
<path style="fill:#141414; stroke:none;" d="M462 789L463 790L462 789z"/>
<path style="fill:#1f1f1f; stroke:none;" d="M589 789L590 790L589 789z"/>
<path style="fill:#141414; stroke:none;" d="M752 790L753 791L752 790z"/>
<path style="fill:#1f1f1f; stroke:none;" d="M794 792L795 793L794 792z"/>
<path style="fill:#141414; stroke:none;" d="M803 798L804 799L803 798z"/>
<path style="fill:#1f1f1f; stroke:none;" d="M916 800L917 801L916 800z"/>
<path style="fill:#141414; stroke:none;" d="M435 812L436 813L435 812M617 818L618 819L617 818M421 819L422 820L421 819M693 832L694 833L693 832M619 856L620 857L619 856M700 856L701 857L700 856M607 863L608 864L607 863M702 863L703 864L702 863M621 868L622 869L621 868M708 880L709 881L708 880z"/>
<path style="fill:#272727; stroke:none;" d="M619 888L620 889L619 888z"/>
<path style="fill:#141414; stroke:none;" d="M602 905L603 906L602 905M601 910L602 911L601 910z"/>
<path style="fill:#010101; stroke:none;" d="M52 979L53 979C63.3742 965.704 83.9562 965.081 99 960.254C117.712 954.25 135.529 945.679 154 939.089C163.119 935.836 172.926 935.133 182 931.911C196.04 926.925 209.755 918.126 225 918L226 915C214.963 910.369 197.09 917.323 186 919.714C170.861 922.979 158.355 932.984 144 938.135C119.691 946.859 94.5719 946.401 72 960C64.0186 964.809 55.5457 969.964 52 979z"/>
<path style="fill:#141414; stroke:none;" d="M198 916L199 917L198 916z"/>
<path style="fill:#1f1f1f; stroke:none;" d="M227 916L228 917L227 916z"/>
<path style="fill:#141414; stroke:none;" d="M187 919L188 920L187 919z"/>
<path style="fill:#010101; stroke:none;" d="M53 981C62.2718 1002.9 100.234 996.484 120 999.3C128.293 1000.48 136.02 1006.1 144 1006.53C154.418 1007.09 173.79 1003.39 181 1012L147 1008L126 1027C132.906 1026.86 145.334 1020.46 151.682 1024.12C158.983 1028.32 149.535 1047.88 149 1054C154.475 1049.7 159.073 1039.57 161.387 1033C162.413 1030.09 161.947 1023.75 164.603 1021.83C169.615 1018.2 175.533 1030.61 181.57 1026.93C189.01 1022.4 180.417 1010.78 187.185 1004.21C192.369 999.181 200.142 996.552 206 992.244C213.868 986.457 219.087 979.599 225.014 972C228.279 967.813 233.076 963.486 233.856 958C234.931 950.427 231.546 943.046 229.347 936C228.081 931.942 227.924 924.837 225.012 921.618C222.515 918.858 216.856 921.404 214 922.355C203.49 925.854 193.456 930.658 183 934.305C173.555 937.599 163.461 938.396 154 941.695C135.133 948.275 117.051 957.181 98 963.329C82.064 968.472 66.1079 969.807 53 981z"/>
<path style="fill:#141414; stroke:none;" d="M739 924L740 925L739 924M198 928L199 929L198 928z"/>
<path style="fill:#1f1f1f; stroke:none;" d="M596 930L597 931L596 930z"/>
<path style="fill:#141414; stroke:none;" d="M228 933L229 934L228 933M148 936L149 937L148 936M155 938L156 939L155 938z"/>
<path style="fill:#272727; stroke:none;" d="M165 938L166 939L165 938z"/>
<path style="fill:#141414; stroke:none;" d="M116 939L117 940L116 939M152 939L153 940L152 939M161 939L162 940L161 939M594 939L595 940L594 939M593 943L594 944L593 943M430 945L431 946L430 945M897 948L898 949L897 948M86 951L87 952L86 951z"/>
<path style="fill:#1f1f1f; stroke:none;" d="M892 953L893 954L892 953z"/>
<path style="fill:#141414; stroke:none;" d="M103 958L104 959L103 958M753 960L754 961L753 960M275 962L276 963L275 962z"/>
<path style="fill:#010101; stroke:none;" d="M750 963L749 971L750 971L750 963z"/>
<path style="fill:#141414; stroke:none;" d="M586 965L587 966L586 965M425 970L426 971L425 970M757 976L758 977L757 976M251 977L252 978L251 977z"/>
<path style="fill:#171717; stroke:none;" d="M745 983L746 984L745 983z"/>
<path style="fill:#1f1f1f; stroke:none;" d="M746 983L747 984L746 983z"/>
<path style="fill:#141414; stroke:none;" d="M256 989L257 990L256 989z"/>
<path style="fill:#1f1f1f; stroke:none;" d="M769 995L770 996L769 995z"/>
<path style="fill:#141414; stroke:none;" d="M196 1001L197 1002L196 1001M188 1002L189 1003L188 1002M194 1017L195 1018L194 1017M784 1025L785 1026L784 1025M121 1026L122 1027L121 1026M248 1026L249 1027L248 1026M144 1027L145 1028L144 1027M781 1031L782 1032L781 1031M264 1033L265 1034L264 1033z"/>
<path style="fill:#010101; stroke:none;" d="M262 1034L263 1035L262 1034z"/>
<path style="fill:#141414; stroke:none;" d="M903 1039L904 1040L903 1039z"/>
<path style="fill:#272727; stroke:none;" d="M724 1050L725 1051L724 1050z"/>
<path style="fill:#141414; stroke:none;" d="M724 1051L725 1052L724 1051M795 1067L796 1068L795 1067M790 1068L791 1069L790 1068M915 1068L916 1069L915 1068M729 1075L730 1076L729 1075M796 1082L797 1083L796 1082z"/>
<path style="fill:#1f1f1f; stroke:none;" d="M803 1093L804 1094L803 1093z"/>
<path style="fill:#141414; stroke:none;" d="M726 1100L727 1101L726 1100z"/>
<path style="fill:#1f1f1f; stroke:none;" d="M445 1103L446 1104L445 1103z"/>
<path style="fill:#010101; stroke:none;" d="M437 1262L489 1113C463.346 1112.98 437.937 1104 412 1104C405.397 1104 393.252 1102.77 387.303 1105.6C381.195 1108.51 379.062 1128.79 377.29 1135C375.198 1142.33 370.977 1148.73 368.924 1156C363.619 1174.78 359.784 1194.13 354.711 1213C352.83 1220 344.895 1233.22 350.028 1240.31C354.586 1246.61 368.019 1247.6 375 1249C395.549 1253.11 416.756 1256.76 437 1262z"/>
<path style="fill:#141414; stroke:none;" d="M423 1104L424 1105L423 1104M385 1105L386 1106L385 1105z"/>
<path style="fill:#1f1f1f; stroke:none;" d="M526 1105L527 1106L526 1105z"/>
<path style="fill:#141414; stroke:none;" d="M821 1105L822 1106L821 1105M439 1106L440 1107L439 1106M316 1107L317 1108L316 1107z"/>
<path style="fill:#1f1f1f; stroke:none;" d="M318 1107L319 1108L318 1107z"/>
<path style="fill:#141414; stroke:none;" d="M319 1107L320 1108L319 1107z"/>
<path style="fill:#1f1f1f; stroke:none;" d="M452 1107L453 1108L452 1107z"/>
<path style="fill:#272727; stroke:none;" d="M818 1109L819 1110L818 1109z"/>
<path style="fill:#010101; stroke:none;" d="M490 1113L491 1114L490 1113z"/>
<path style="fill:#141414; stroke:none;" d="M936 1117L937 1118L936 1117M851 1126L852 1127L851 1126M378 1130L379 1131L378 1130z"/>
<path style="fill:#272727; stroke:none;" d="M733 1132L734 1133L733 1132z"/>
<path style="fill:#1f1f1f; stroke:none;" d="M952 1136L953 1137L952 1136z"/>
<path style="fill:#141414; stroke:none;" d="M483 1139L484 1140L483 1139M854 1140L855 1141L854 1140z"/>
<path style="fill:#272727; stroke:none;" d="M478 1142L479 1143L478 1142z"/>
<path style="fill:#141414; stroke:none;" d="M733 1156L734 1157L733 1156M866 1156L867 1157L866 1156M958 1158L959 1159L958 1158M469 1161L470 1162L469 1161z"/>
<path style="fill:#272727; stroke:none;" d="M473 1164L474 1165L473 1164z"/>
<path style="fill:#141414; stroke:none;" d="M961 1164L962 1165L961 1164M362 1167L363 1168L362 1167M867 1182L868 1183L867 1182M359 1193L360 1194L359 1193z"/>
<path style="fill:#1f1f1f; stroke:none;" d="M873 1198L874 1199L873 1198z"/>
<path style="fill:#141414; stroke:none;" d="M357 1200L358 1201L357 1200z"/>
<path style="fill:#1f1f1f; stroke:none;" d="M880 1202L881 1203L880 1202z"/>
<path style="fill:#272727; stroke:none;" d="M979 1211L980 1212L979 1211z"/>
<path style="fill:#141414; stroke:none;" d="M885 1218L886 1219L885 1218z"/>
<path style="fill:#1f1f1f; stroke:none;" d="M457 1219L458 1220L457 1219z"/>
<path style="fill:#141414; stroke:none;" d="M880 1219L881 1220L880 1219z"/>
<path style="fill:#1f1f1f; stroke:none;" d="M346 1224L347 1225L346 1224z"/>
<path style="fill:#141414; stroke:none;" d="M728 1226L729 1227L728 1226z"/>
<path style="fill:#272727; stroke:none;" d="M345 1227L346 1228L345 1227z"/>
<path style="fill:#141414; stroke:none;" d="M449 1229L450 1230L449 1229M450 1241L451 1242L450 1241z"/>
<path style="fill:#1f1f1f; stroke:none;" d="M994 1241L995 1242L994 1241z"/>
<path style="fill:#272727; stroke:none;" d="M353 1242L354 1243L353 1242z"/>
<path style="fill:#141414; stroke:none;" d="M446 1252L447 1253L446 1252M400 1255L401 1256L400 1255M439 1256L440 1257L439 1256M994 1257L995 1258L994 1257M407 1258L408 1259L407 1258M896 1258L897 1259L896 1258M437 1260L438 1261L437 1260M434 1279L435 1280L434 1279z"/>
<path style="fill:#010101; stroke:none;" d="M446 1294L447 1295L446 1294z"/>
<path style="fill:#141414; stroke:none;" d="M451 1306L452 1307L451 1306M1009 1307L1010 1308L1009 1307M447 1308L448 1309L447 1308z"/>
<path style="fill:#010101; stroke:none;" d="M354 1362C366.596 1359.54 383.287 1365.95 396 1367.7C401.772 1368.49 407.271 1366.02 413 1366.53C429.946 1368.03 449.343 1372.07 466 1375.38C479.435 1378.04 491.151 1385 505 1385C497.101 1393.07 475.842 1379.97 466 1378.33C449.333 1375.55 431.835 1371.98 415 1370.17C408.964 1369.53 402.923 1371.39 397 1370.69C382.654 1368.99 368.507 1363.12 354 1363C352.228 1372.57 355.896 1379.46 366 1380.85C374.842 1382.06 384.097 1380.48 393 1381.06C413.688 1382.41 435.56 1383.94 456 1387.42C470.976 1389.96 489.557 1399.44 504.917 1394.8C512.011 1392.66 503.093 1377.87 503.005 1373C502.955 1370.26 504.058 1365.51 501 1365C503.735 1352.92 490.623 1354.52 483 1350.56C477.227 1347.56 472.544 1342.45 467 1339L465 1352L461 1349C449.305 1351.22 446.878 1330.29 443 1322C433.523 1333.05 429.361 1317.58 426 1310C419.185 1312.22 412.176 1315.67 405 1316.45C397.56 1317.25 389.526 1315.04 382 1315C376.771 1314.97 367.805 1310.93 363.419 1314.6C353.407 1322.98 356.251 1350.05 354 1362z"/>
<path style="fill:#141414; stroke:none;" d="M912 1312L913 1313L912 1312M407 1313L408 1314L407 1313M431 1313L432 1314L431 1313M413 1314L414 1315L413 1314M439 1321L440 1322L439 1321M1006 1325L1007 1326L1006 1325z"/>
<path style="fill:#010101; stroke:none;" d="M909 1349L911 1356L907 1352L903 1354C911.009 1363.44 898.675 1363.33 902 1355C885.092 1363.9 871.52 1372.57 852 1373.91C841.726 1374.61 832.158 1376.38 822 1377.71C818.059 1378.23 812.782 1377.28 809.858 1380.65C806.032 1385.07 809.271 1393.83 812.649 1397.61C815.976 1401.33 821.544 1402.64 826 1404.45C834.548 1407.93 843.06 1414 852 1415.98C865.305 1418.93 881.421 1423.55 895 1422.96C922.563 1421.76 948.004 1408.55 973 1398.45C984.93 1393.63 1008.64 1388.11 1014.3 1375C1019.57 1362.79 1012.68 1354.31 1009 1343C989.499 1349.19 964.872 1344.2 945 1340.75C939.388 1339.77 924.419 1333.24 919.498 1336.12C906.328 1343.83 934.228 1356.69 926.303 1363.17C921.851 1366.81 911.962 1351.45 909 1349z"/>
<path style="fill:#141414; stroke:none;" d="M949 1341L950 1342L949 1341M352 1346L353 1347L352 1346z"/>
<path style="fill:#010101; stroke:none;" d="M911 1347L925 1362C923.772 1355.19 918.641 1346.73 911 1347z"/>
<path style="fill:#141414; stroke:none;" d="M456 1347L457 1348L456 1347M465 1350L466 1351L465 1350M901 1351L902 1352L901 1351z"/>
<path style="fill:#171717; stroke:none;" d="M813 1394L813 1395C839.218 1404.89 873.612 1416.58 902 1413.83C932.841 1410.85 958.573 1395.44 982 1376.47C991.129 1369.08 1006.43 1364.97 1012 1354C1004.91 1355.93 999.177 1362.38 993 1366.3C973.467 1378.73 956.262 1394.89 934 1402.91C890.781 1418.48 855.54 1399.4 813 1394z"/>
<path style="fill:#141414; stroke:none;" d="M505 1355L506 1356L505 1355z"/>
<path style="fill:#1f1f1f; stroke:none;" d="M504 1356L505 1357L504 1356z"/>
<path style="fill:#171717; stroke:none;" d="M911 1356L913 1358L911 1356z"/>
<path style="fill:#141414; stroke:none;" d="M626 1357L627 1358L626 1357z"/>
<path style="fill:#010101; stroke:none;" d="M621 1358L622 1359L621 1358M504 1359L504 1361L506 1359L504 1359z"/>
<path style="fill:#171717; stroke:none;" d="M598.264 1360.06C595.205 1360.68 596.949 1365.59 599.736 1365.08C602.773 1364.52 601.133 1359.48 598.264 1360.06z"/>
<path style="fill:#141414; stroke:none;" d="M600 1359L601 1360L600 1359M621 1359L622 1360L621 1359z"/>
<path style="fill:#272727; stroke:none;" d="M359 1361L360 1362L359 1361z"/>
<path style="fill:#171717; stroke:none;" d="M893.073 1361.63C887.531 1362.97 891.326 1369.49 895.851 1368.21C900.554 1366.88 897.327 1360.6 893.073 1361.63M590 1369C591.348 1358.63 579.734 1366.8 590 1369z"/>
<path style="fill:#272727; stroke:none;" d="M612 1363L613 1364L612 1363z"/>
<path style="fill:#010101; stroke:none;" d="M893.667 1364.33L894.333 1364.67L893.667 1364.33z"/>
<path style="fill:#171717; stroke:none;" d="M574 1367C575.352 1370.85 576.949 1372.36 581 1373C580.638 1368.22 579.015 1365.34 574 1367z"/>
<path style="fill:#010101; stroke:none;" d="M587 1365L588 1366L587 1365z"/>
<path style="fill:#141414; stroke:none;" d="M634 1365L635 1366L634 1365z"/>
<path style="fill:#171717; stroke:none;" d="M879 1369C880.383 1373.8 883.09 1375.36 888 1375C887.341 1369.1 884.706 1366.76 879 1369z"/>
<path style="fill:#141414; stroke:none;" d="M612 1368L613 1369L612 1368M860 1368L861 1369L860 1368M410 1369L411 1370L410 1369M836 1369L837 1370L836 1369z"/>
<path style="fill:#1f1f1f; stroke:none;" d="M837 1369L838 1370L837 1369z"/>
<path style="fill:#141414; stroke:none;" d="M659 1370L660 1371L659 1370z"/>
<path style="fill:#010101; stroke:none;" d="M883 1371L884 1372L883 1371z"/>
<path style="fill:#141414; stroke:none;" d="M425 1372L426 1373L425 1372M354 1373L355 1374L354 1373z"/>
<path style="fill:#171717; stroke:none;" d="M878 1382C877.166 1366.81 864.032 1379.82 878 1382z"/>
<path style="fill:#141414; stroke:none;" d="M622 1374L623 1375L622 1374M658 1375L659 1376L658 1375M885 1375L886 1376L885 1375z"/>
<path style="fill:#010101; stroke:none;" d="M873 1376L873 1378L875 1378L873 1376z"/>
<path style="fill:#141414; stroke:none;" d="M358 1381L359 1382L358 1381M409 1382L410 1383L409 1382M424 1384L425 1385L424 1384M390 1385L391 1386L390 1385M698 1386L699 1387L698 1386M509 1388L510 1389L509 1388z"/>
<path style="fill:#010101; stroke:none;" d="M509 1389L510 1390L509 1389z"/>
<path style="fill:#171717; stroke:none;" d="M811 1389L812 1390L811 1389z"/>
<path style="fill:#010101; stroke:none;" d="M510 1390L511 1391L510 1390z"/>
<path style="fill:#272727; stroke:none;" d="M1002 1390L1003 1391L1002 1390z"/>
<path style="fill:#010101; stroke:none;" d="M511.333 1391.67L511.667 1392.33L511.333 1391.67M521 1392L522 1393L521 1392z"/>
<path style="fill:#1f1f1f; stroke:none;" d="M802 1396L803 1397L802 1396z"/>
<path style="fill:#141414; stroke:none;" d="M942 1402L943 1403L942 1402M940 1403L941 1404L940 1403M826 1404L827 1405L826 1404M530 1407L531 1408L530 1407M538 1407L539 1408L538 1407z"/>
<path style="fill:#272727; stroke:none;" d="M732 1410L733 1411L732 1410z"/>
<path style="fill:#1f1f1f; stroke:none;" d="M816 1410L817 1411L816 1410z"/>
<path style="fill:#272727; stroke:none;" d="M919 1410L920 1411L919 1410z"/>
<path style="fill:#141414; stroke:none;" d="M910 1412L911 1413L910 1412M930 1415L931 1416L930 1415M927 1416L928 1417L927 1416M837 1417L838 1418L837 1417M861 1417L862 1418L861 1417M869 1418L870 1419L869 1418M630 1420L631 1421L630 1420M928 1421L929 1422L928 1421M659 1422L660 1423L659 1422M690 1422L691 1423L690 1422M599 1424L600 1425L599 1424M916 1424L917 1425L916 1424M876 1426L877 1427L876 1426M893 1428L894 1429L893 1428M716 1430L717 1431L716 1430z"/>
<path style="fill:#1f1f1f; stroke:none;" d="M680 1437L681 1438L680 1437z"/>
</svg>
